<svg width="72" height="72" viewBox="0 0 72 72" fill="none" xmlns="http://www.w3.org/2000/svg">
<rect width="72" height="71.9937" rx="8" fill="white"/>
<rect width="72" height="71.9937" rx="8" fill="url(#paint0_linear_387_28)"/>
<rect x="0.473684" y="0.473684" width="71.0526" height="71.0463" rx="7.52632" stroke="white" stroke-opacity="0.1" stroke-width="0.947368"/>
<mask id="path-3-inside-1_387_28" fill="white">
<path fill-rule="evenodd" clip-rule="evenodd" d="M44.9638 13.26H55.895V24.1912H50.4294H47.6966L44.9638 21.4584V18.7256V13.26ZM27.0364 47.8026H55.8947V58.7337H32.5019H29.7692L27.0364 56.001V53.2682V47.8026ZM27.0365 36.8713H16.1053V42.3369V45.0696L18.8381 47.8024H21.5709H27.0365V36.8713ZM16.1053 24.1911H27.0365V35.1223H21.5709H18.8381L16.1053 32.3895V29.6567V24.1911ZM43.2146 13.26H24.4129V18.7256V21.4584L27.1457 24.1912H29.8785H43.2146V13.26Z"/>
</mask>
<path fill-rule="evenodd" clip-rule="evenodd" d="M44.9638 13.26H55.895V24.1912H50.4294H47.6966L44.9638 21.4584V18.7256V13.26ZM27.0364 47.8026H55.8947V58.7337H32.5019H29.7692L27.0364 56.001V53.2682V47.8026ZM27.0365 36.8713H16.1053V42.3369V45.0696L18.8381 47.8024H21.5709H27.0365V36.8713ZM16.1053 24.1911H27.0365V35.1223H21.5709H18.8381L16.1053 32.3895V29.6567V24.1911ZM43.2146 13.26H24.4129V18.7256V21.4584L27.1457 24.1912H29.8785H43.2146V13.26Z" fill="url(#paint1_linear_387_28)"/>
<path d="M55.895 13.26H56.4634V12.6916H55.895V13.26ZM44.9638 13.26V12.6916H44.3954V13.26H44.9638ZM55.895 24.1912V24.7596H56.4634V24.1912H55.895ZM47.6966 24.1912L47.2947 24.5931L47.4612 24.7596H47.6966V24.1912ZM44.9638 21.4584H44.3954V21.6938L44.5619 21.8603L44.9638 21.4584ZM55.8947 47.8026H56.4631V47.2341H55.8947V47.8026ZM27.0364 47.8026V47.2341H26.4679V47.8026H27.0364ZM55.8947 58.7337V59.3022H56.4631V58.7337H55.8947ZM29.7692 58.7337L29.3672 59.1357L29.5337 59.3022H29.7692V58.7337ZM27.0364 56.001H26.4679V56.2364L26.6344 56.4029L27.0364 56.001ZM16.1053 36.8713V36.3028H15.5369V36.8713H16.1053ZM27.0365 36.8713H27.6049V36.3028H27.0365V36.8713ZM16.1053 45.0696H15.5369V45.3051L15.7034 45.4716L16.1053 45.0696ZM18.8381 47.8024L18.4362 48.2044L18.6027 48.3709H18.8381V47.8024ZM27.0365 47.8024V48.3709H27.6049V47.8024H27.0365ZM27.0365 24.1911H27.6049V23.6227H27.0365V24.1911ZM16.1053 24.1911V23.6227H15.5369V24.1911H16.1053ZM27.0365 35.1223V35.6907H27.6049V35.1223H27.0365ZM18.8381 35.1223L18.4362 35.5242L18.6027 35.6907H18.8381V35.1223ZM16.1053 32.3895H15.5369V32.625L15.7034 32.7914L16.1053 32.3895ZM24.4129 13.26V12.6916H23.8445V13.26H24.4129ZM43.2146 13.26H43.783V12.6916H43.2146V13.26ZM24.4129 21.4584H23.8445V21.6938L24.011 21.8603L24.4129 21.4584ZM27.1457 24.1912L26.7438 24.5931L26.9103 24.7596H27.1457V24.1912ZM43.2146 24.1912V24.7596H43.783V24.1912H43.2146ZM55.895 12.6916H44.9638V13.8284H55.895V12.6916ZM56.4634 24.1912V13.26H55.3266V24.1912H56.4634ZM50.4294 24.7596H55.895V23.6228H50.4294V24.7596ZM47.6966 24.7596H50.4294V23.6228H47.6966V24.7596ZM44.5619 21.8603L47.2947 24.5931L48.0985 23.7893L45.3657 21.0565L44.5619 21.8603ZM44.3954 18.7256V21.4584H45.5322V18.7256H44.3954ZM44.3954 13.26V18.7256H45.5322V13.26H44.3954ZM55.8947 47.2341H27.0364V48.371H55.8947V47.2341ZM56.4631 58.7337V47.8026H55.3262V58.7337H56.4631ZM32.5019 59.3022H55.8947V58.1653H32.5019V59.3022ZM29.7692 59.3022H32.5019V58.1653H29.7692V59.3022ZM26.6344 56.4029L29.3672 59.1357L30.1711 58.3318L27.4383 55.599L26.6344 56.4029ZM26.4679 53.2682V56.001H27.6048V53.2682H26.4679ZM26.4679 47.8026V53.2682H27.6048V47.8026H26.4679ZM16.1053 37.4397H27.0365V36.3028H16.1053V37.4397ZM16.6738 42.3369V36.8713H15.5369V42.3369H16.6738ZM16.6738 45.0696V42.3369H15.5369V45.0696H16.6738ZM19.2401 47.4005L16.5073 44.6677L15.7034 45.4716L18.4362 48.2044L19.2401 47.4005ZM21.5709 47.234H18.8381V48.3709H21.5709V47.234ZM27.0365 47.234H21.5709V48.3709H27.0365V47.234ZM26.4681 36.8713V47.8024H27.6049V36.8713H26.4681ZM27.0365 23.6227H16.1053V24.7596H27.0365V23.6227ZM27.6049 35.1223V24.1911H26.4681V35.1223H27.6049ZM21.5709 35.6907H27.0365V34.5539H21.5709V35.6907ZM18.8381 35.6907H21.5709V34.5539H18.8381V35.6907ZM15.7034 32.7914L18.4362 35.5242L19.2401 34.7204L16.5073 31.9876L15.7034 32.7914ZM15.5369 29.6567V32.3895H16.6738V29.6567H15.5369ZM15.5369 24.1911V29.6567H16.6738V24.1911H15.5369ZM24.4129 13.8284H43.2146V12.6916H24.4129V13.8284ZM24.9814 18.7256V13.26H23.8445V18.7256H24.9814ZM24.9814 21.4584V18.7256H23.8445V21.4584H24.9814ZM27.5477 23.7893L24.8149 21.0565L24.011 21.8603L26.7438 24.5931L27.5477 23.7893ZM29.8785 23.6228H27.1457V24.7596H29.8785V23.6228ZM43.2146 23.6228H29.8785V24.7596H43.2146V23.6228ZM42.6461 13.26V24.1912H43.783V13.26H42.6461Z" fill="white" fill-opacity="0.25" mask="url(#path-3-inside-1_387_28)"/>
<g opacity="0.26" filter="url(#filter0_f_387_28)">
<path d="M55.8949 24.06V13.26H24.6317V14.3969H54.1896V24.06H55.8949Z" fill="white"/>
</g>
<g opacity="0.26" filter="url(#filter1_f_387_28)">
<path d="M55.8949 24.06V13.26H24.6317V14.3969H54.1896V24.06H55.8949Z" fill="white"/>
</g>
<defs>
<filter id="filter0_f_387_28" x="22.358" y="10.9863" width="35.8106" height="15.3474" filterUnits="userSpaceOnUse" color-interpolation-filters="sRGB">
<feFlood flood-opacity="0" result="BackgroundImageFix"/>
<feBlend mode="normal" in="SourceGraphic" in2="BackgroundImageFix" result="shape"/>
<feGaussianBlur stdDeviation="1.13684" result="effect1_foregroundBlur_387_28"/>
</filter>
<filter id="filter1_f_387_28" x="17.1397" y="5.76803" width="46.2471" height="25.784" filterUnits="userSpaceOnUse" color-interpolation-filters="sRGB">
<feFlood flood-opacity="0" result="BackgroundImageFix"/>
<feBlend mode="normal" in="SourceGraphic" in2="BackgroundImageFix" result="shape"/>
<feGaussianBlur stdDeviation="3.74599" result="effect1_foregroundBlur_387_28"/>
</filter>
<linearGradient id="paint0_linear_387_28" x1="42.9882" y1="59.7124" x2="58.2975" y2="4.36559" gradientUnits="userSpaceOnUse">
<stop stop-color="#0071E3"/>
<stop offset="0.927091" stop-color="#0071E3" stop-opacity="0.7"/>
</linearGradient>
<linearGradient id="paint1_linear_387_28" x1="36.0002" y1="13.26" x2="36.0002" y2="58.7337" gradientUnits="userSpaceOnUse">
<stop stop-color="white"/>
<stop offset="1" stop-color="#CFE7FF" stop-opacity="0.7"/>
</linearGradient>
</defs>
</svg>
