<svg width="88" height="88" viewBox="0 0 88 88" fill="none" xmlns="http://www.w3.org/2000/svg">
    <g filter="url(#filter0_d_308_961)">
        <path
            d="M22.2521 29.126C19.2493 26.1233 19.2493 21.2548 22.2521 18.2521C25.2548 15.2493 30.1233 15.2493 33.126 18.2521L65.748 50.8739C68.7507 53.8768 68.7507 58.7451 65.748 61.748C62.7451 64.7507 57.8768 64.7507 54.8739 61.748L22.2521 29.126Z"
            stroke="white" stroke-width="2" />
        <path opacity="0.5" d="M28 34.6667L38.6667 24" stroke="white" stroke-width="2"
            stroke-linecap="round" />
        <path
            d="M54.9333 14.1525C55.3627 13.0603 56.9027 13.0603 57.3317 14.1525L58.4795 17.0733C58.6107 17.4067 58.8736 17.6707 59.2059 17.8022L62.1157 18.9541C63.204 19.3849 63.204 20.9307 62.1157 21.3614L59.2059 22.5134C58.8736 22.6449 58.6107 22.9089 58.4795 23.2423L57.332 26.1631C56.9027 27.2553 55.3627 27.2553 54.9333 26.1631L53.7859 23.2423C53.6547 22.9089 53.3917 22.6449 53.0595 22.5134L50.1496 21.3614C49.0613 20.9307 49.0613 19.3849 50.1496 18.9541L53.0595 17.8022C53.3917 17.6707 53.6547 17.4067 53.7859 17.0733L54.9333 14.1525Z"
            stroke="white" stroke-width="1.33333" />
        <path opacity="0.5"
            d="M65.2459 32.3452C65.6749 31.253 67.2152 31.253 67.6443 32.3452L68.0627 33.4101C68.1939 33.7436 68.4568 34.0076 68.7891 34.1391L69.8499 34.5591C70.9381 34.9899 70.9381 36.5357 69.8499 36.9664L68.7891 37.3864C68.4568 37.5179 68.1939 37.7819 68.0627 38.1152L67.6443 39.1803C67.2152 40.2725 65.6749 40.2725 65.2459 39.1803L64.8275 38.1152C64.6963 37.7819 64.4333 37.5179 64.1011 37.3864L63.04 36.9664C61.952 36.5357 61.952 34.9899 63.04 34.5591L64.1011 34.1391C64.4333 34.0076 64.6963 33.7436 64.8275 33.4101L65.2459 32.3452Z"
            stroke="white" stroke-width="1.33333" />
        <path opacity="0.5"
            d="M25.6885 48.8192C26.1177 47.7269 27.6578 47.7269 28.087 48.8192L28.5054 49.884C28.6365 50.2176 28.8994 50.4816 29.2317 50.6131L30.2927 51.0331C31.3809 51.4637 31.3809 53.0096 30.2927 53.4403L29.2317 53.8603C28.8994 53.9917 28.6365 54.2557 28.5054 54.5893L28.087 55.6541C27.6578 56.7464 26.1177 56.7464 25.6885 55.6541L25.2701 54.5893C25.139 54.2557 24.8761 53.9917 24.5438 53.8603L23.4828 53.4403C22.3946 53.0096 22.3946 51.4637 23.4828 51.0331L24.5438 50.6131C24.8761 50.4816 25.139 50.2176 25.2701 49.884L25.6885 48.8192Z"
            stroke="white" stroke-width="1.33333" />
    </g>
    <g style="mix-blend-mode:plus-lighter" opacity="0.4" filter="url(#filter1_f_308_961)">
        <path
            d="M22.2521 29.126C19.2493 26.1233 19.2493 21.2548 22.2521 18.2521C25.2548 15.2493 30.1233 15.2493 33.126 18.2521L65.748 50.8739C68.7507 53.8768 68.7507 58.7451 65.748 61.748C62.7451 64.7507 57.8768 64.7507 54.8739 61.748L22.2521 29.126Z"
            stroke="white" stroke-width="2" />
        <path opacity="0.5" d="M28 34.6667L38.6667 24" stroke="white" stroke-width="2"
            stroke-linecap="round" />
        <path
            d="M54.9333 14.1525C55.3627 13.0603 56.9027 13.0603 57.3317 14.1525L58.4795 17.0733C58.6107 17.4067 58.8736 17.6707 59.2059 17.8022L62.1157 18.9541C63.204 19.3849 63.204 20.9307 62.1157 21.3614L59.2059 22.5134C58.8736 22.6449 58.6107 22.9089 58.4795 23.2423L57.332 26.1631C56.9027 27.2553 55.3627 27.2553 54.9333 26.1631L53.7859 23.2423C53.6547 22.9089 53.3917 22.6449 53.0595 22.5134L50.1496 21.3614C49.0613 20.9307 49.0613 19.3849 50.1496 18.9541L53.0595 17.8022C53.3917 17.6707 53.6547 17.4067 53.7859 17.0733L54.9333 14.1525Z"
            stroke="white" stroke-width="1.33333" />
        <path opacity="0.5"
            d="M65.2459 32.3452C65.6749 31.253 67.2152 31.253 67.6443 32.3452L68.0627 33.4101C68.1939 33.7436 68.4568 34.0076 68.7891 34.1391L69.8499 34.5591C70.9381 34.9899 70.9381 36.5357 69.8499 36.9664L68.7891 37.3864C68.4568 37.5179 68.1939 37.7819 68.0627 38.1152L67.6443 39.1803C67.2152 40.2725 65.6749 40.2725 65.2459 39.1803L64.8275 38.1152C64.6963 37.7819 64.4333 37.5179 64.1011 37.3864L63.04 36.9664C61.952 36.5357 61.952 34.9899 63.04 34.5591L64.1011 34.1391C64.4333 34.0076 64.6963 33.7436 64.8275 33.4101L65.2459 32.3452Z"
            stroke="white" stroke-width="1.33333" />
        <path opacity="0.5"
            d="M25.6885 48.8192C26.1177 47.7269 27.6578 47.7269 28.087 48.8192L28.5054 49.884C28.6365 50.2176 28.8994 50.4816 29.2317 50.6131L30.2927 51.0331C31.3809 51.4637 31.3809 53.0096 30.2927 53.4403L29.2317 53.8603C28.8994 53.9917 28.6365 54.2557 28.5054 54.5893L28.087 55.6541C27.6578 56.7464 26.1177 56.7464 25.6885 55.6541L25.2701 54.5893C25.139 54.2557 24.8761 53.9917 24.5438 53.8603L23.4828 53.4403C22.3946 53.0096 22.3946 51.4637 23.4828 51.0331L24.5438 50.6131C24.8761 50.4816 25.139 50.2176 25.2701 49.884L25.6885 48.8192Z"
            stroke="white" stroke-width="1.33333" />
    </g>
    <defs>
        <filter id="filter0_d_308_961" x="0" y="0" width="88" height="88"
            filterUnits="userSpaceOnUse" color-interpolation-filters="sRGB">
            <feFlood flood-opacity="0" result="BackgroundImageFix" />
            <feColorMatrix in="SourceAlpha" type="matrix"
                values="0 0 0 0 0 0 0 0 0 0 0 0 0 0 0 0 0 0 127 0" result="hardAlpha" />
            <feOffset dy="4" />
            <feGaussianBlur stdDeviation="6" />
            <feComposite in2="hardAlpha" operator="out" />
            <feColorMatrix type="matrix" values="0 0 0 0 0 0 0 0 0 0 0 0 0 0 0 0 0 0 0.5 0" />
            <feBlend mode="normal" in2="BackgroundImageFix" result="effect1_dropShadow_308_961" />
            <feBlend mode="normal" in="SourceGraphic" in2="effect1_dropShadow_308_961"
                result="shape" />
        </filter>
        <filter id="filter1_f_308_961" x="7" y="3" width="74" height="74"
            filterUnits="userSpaceOnUse" color-interpolation-filters="sRGB">
            <feFlood flood-opacity="0" result="BackgroundImageFix" />
            <feBlend mode="normal" in="SourceGraphic" in2="BackgroundImageFix" result="shape" />
            <feGaussianBlur stdDeviation="2.5" result="effect1_foregroundBlur_308_961" />
        </filter>
    </defs>
</svg>
    