<svg width="32" height="32" viewBox="0 0 32 32" fill="none" xmlns="http://www.w3.org/2000/svg">
    <path
        d="M0 6C0 2.68629 2.68629 0 6 0H26C29.3137 0 32 2.68629 32 6V26C32 29.3137 29.3137 32 26 32H6C2.68629 32 0 29.3137 0 26V6Z"
        fill="url(#paint0_linear_292_89)" />
    <path
        d="M24.6774 8.1132C23.0349 7.36121 21.3009 6.82772 19.5197 6.52637C19.276 6.96208 19.0554 7.41038 18.859 7.86937C16.9617 7.58347 15.0323 7.58347 13.135 7.86937C12.9385 7.41042 12.718 6.96214 12.4743 6.52637C10.692 6.83027 8.95688 7.36502 7.3127 8.11713C4.04859 12.9464 3.16374 17.6558 3.60616 22.2983C5.51771 23.7107 7.65727 24.7848 9.93185 25.4739C10.444 24.7851 10.8972 24.0543 11.2867 23.2894C10.547 23.0131 9.83308 22.6723 9.15319 22.2708C9.33212 22.141 9.50713 22.0073 9.67623 21.8775C11.6546 22.8079 13.8138 23.2903 16 23.2903C18.1861 23.2903 20.3454 22.8079 22.3237 21.8775C22.4948 22.0171 22.6698 22.1508 22.8467 22.2708C22.1655 22.6729 21.4503 23.0144 20.7093 23.2913C21.0983 24.0559 21.5515 24.7861 22.0641 25.4739C24.3406 24.7875 26.4819 23.7139 28.3937 22.3003C28.9129 16.9165 27.5069 12.2504 24.6774 8.1132ZM11.8471 19.4432C10.6142 19.4432 9.59561 18.3244 9.59561 16.9479C9.59561 15.5715 10.5788 14.4428 11.8431 14.4428C13.1075 14.4428 14.1182 15.5715 14.0965 16.9479C14.0749 18.3244 13.1035 19.4432 11.8471 19.4432ZM20.1528 19.4432C18.918 19.4432 17.9034 18.3244 17.9034 16.9479C17.9034 15.5715 18.8865 14.4428 20.1528 14.4428C21.4192 14.4428 22.422 15.5715 22.4004 16.9479C22.3787 18.3244 21.4093 19.4432 20.1528 19.4432Z"
        fill="url(#paint1_linear_292_89)" />
    <defs>
        <linearGradient id="paint0_linear_292_89" x1="16" y1="0" x2="16" y2="32"
            gradientUnits="userSpaceOnUse">
            <stop stop-color="#414141" />
            <stop offset="1" stop-color="#212121" />
        </linearGradient>
        <linearGradient id="paint1_linear_292_89" x1="16" y1="6.52637" x2="16" y2="25.4739"
            gradientUnits="userSpaceOnUse">
            <stop stop-color="white" />
            <stop offset="1" stop-color="#CFE7FF" stop-opacity="0.7" />
        </linearGradient>
    </defs>
</svg>
    