<svg width="32" height="32" viewBox="0 0 32 32" fill="none" xmlns="http://www.w3.org/2000/svg">
    <rect width="32" height="32" rx="6" fill="url(#paint0_linear_138_348)"/>
    <path d="M16.0024 5.75142C19.3429 5.75142 19.7385 5.76607 21.0523 5.82467C22.2732 5.87839 22.9325 6.08351 23.372 6.25444C23.9532 6.4791 24.3732 6.75259 24.8079 7.18724C25.2474 7.62678 25.516 8.0419 25.7407 8.62307C25.9116 9.06261 26.1167 9.7268 26.1704 10.9429C26.229 12.2615 26.2437 12.6571 26.2437 15.9927C26.2437 19.3332 26.229 19.7288 26.1704 21.0425C26.1167 22.2634 25.9116 22.9227 25.7407 23.3623C25.516 23.9434 25.2425 24.3635 24.8079 24.7981C24.3683 25.2376 23.9532 25.5063 23.372 25.7309C22.9325 25.9018 22.2683 26.107 21.0523 26.1607C19.7336 26.2193 19.3381 26.2339 16.0024 26.2339C12.6619 26.2339 12.2664 26.2193 10.9526 26.1607C9.73169 26.107 9.07238 25.9018 8.63284 25.7309C8.05167 25.5063 7.63167 25.2328 7.19701 24.7981C6.75747 24.3586 6.48886 23.9434 6.26421 23.3623C6.09328 22.9227 5.88816 22.2585 5.83444 21.0425C5.77584 19.7239 5.76118 19.3283 5.76118 15.9927C5.76118 12.6522 5.77584 12.2566 5.83444 10.9429C5.88816 9.72192 6.09328 9.06261 6.26421 8.62307C6.48886 8.0419 6.76236 7.6219 7.19701 7.18724C7.63655 6.7477 8.05167 6.4791 8.63284 6.25444C9.07238 6.08351 9.73657 5.87839 10.9526 5.82467C12.2664 5.76607 12.6619 5.75142 16.0024 5.75142ZM16.0024 3.5C12.6082 3.5 12.1833 3.51465 10.8501 3.57326C9.52168 3.63186 8.60842 3.84675 7.81725 4.15442C6.99189 4.47675 6.29351 4.90164 5.60002 5.60002C4.90164 6.29351 4.47675 6.99189 4.15442 7.81237C3.84675 8.60842 3.63186 9.5168 3.57326 10.8452C3.51465 12.1833 3.5 12.6082 3.5 16.0024C3.5 19.3967 3.51465 19.8215 3.57326 21.1548C3.63186 22.4832 3.84675 23.3965 4.15442 24.1876C4.47675 25.013 4.90164 25.7114 5.60002 26.4049C6.29351 27.0984 6.99189 27.5281 7.81237 27.8456C8.60842 28.1533 9.5168 28.3681 10.8452 28.4267C12.1785 28.4853 12.6033 28.5 15.9976 28.5C19.3918 28.5 19.8167 28.4853 21.1499 28.4267C22.4783 28.3681 23.3916 28.1533 24.1828 27.8456C25.0032 27.5281 25.7016 27.0984 26.3951 26.4049C27.0886 25.7114 27.5184 25.013 27.8358 24.1925C28.1435 23.3965 28.3584 22.4881 28.417 21.1597C28.4756 19.8264 28.4902 19.4015 28.4902 16.0073C28.4902 12.6131 28.4756 12.1882 28.417 10.855C28.3584 9.52657 28.1435 8.6133 27.8358 7.82213C27.5281 6.99189 27.1032 6.29351 26.4049 5.60002C25.7114 4.90652 25.013 4.47675 24.1925 4.15931C23.3965 3.85163 22.4881 3.63675 21.1597 3.57814C19.8215 3.51465 19.3967 3.5 16.0024 3.5Z" fill="url(#paint1_linear_138_348)"/>
    <path d="M16 9.18701C12.2371 9.18701 9.1842 12.2387 9.1842 16.0001C9.1842 19.7616 12.2371 22.8133 16 22.8133C19.7629 22.8133 22.8158 19.7616 22.8158 16.0001C22.8158 12.2387 19.7629 9.18701 16 9.18701ZM16 20.4196C13.5588 20.4196 11.5788 18.4404 11.5788 16.0001C11.5788 13.5599 13.5588 11.5807 16 11.5807C18.4412 11.5807 20.4212 13.5599 20.4212 16.0001C20.4212 18.4404 18.4412 20.4196 16 20.4196Z" fill="url(#paint2_linear_138_348)"/>
    <path d="M24.6766 8.91774C24.6766 9.79853 23.9613 10.5083 23.0854 10.5083C22.2042 10.5083 21.4941 9.79335 21.4941 8.91774C21.4941 8.03696 22.2094 7.32715 23.0854 7.32715C23.9613 7.32715 24.6766 8.04214 24.6766 8.91774Z" fill="url(#paint3_linear_138_348)"/>
    <defs>
    <linearGradient id="paint0_linear_138_348" x1="16" y1="0" x2="16" y2="32" gradientUnits="userSpaceOnUse">
    <stop stop-color="#414141"/>
    <stop offset="1" stop-color="#212121"/>
    </linearGradient>
    <linearGradient id="paint1_linear_138_348" x1="15.9951" y1="3.5" x2="15.9951" y2="28.5" gradientUnits="userSpaceOnUse">
    <stop stop-color="#D9D9D9"/>
    <stop offset="1" stop-color="#737373"/>
    </linearGradient>
    <linearGradient id="paint2_linear_138_348" x1="16" y1="9.18701" x2="16" y2="22.8133" gradientUnits="userSpaceOnUse">
    <stop stop-color="#D9D9D9"/>
    <stop offset="1" stop-color="#737373"/>
    </linearGradient>
    <linearGradient id="paint3_linear_138_348" x1="23.0854" y1="7.32715" x2="23.0854" y2="10.5083" gradientUnits="userSpaceOnUse">
    <stop stop-color="#D9D9D9"/>
    <stop offset="1" stop-color="#737373"/>
    </linearGradient>
    </defs>
    </svg>
    