<svg width="32" height="32" viewBox="0 0 32 32" fill="none" xmlns="http://www.w3.org/2000/svg">
    <path
        d="M0 6C0 2.68629 2.68629 0 6 0H26C29.3137 0 32 2.68629 32 6V26C32 29.3137 29.3137 32 26 32H6C2.68629 32 0 29.3137 0 26V6Z"
        fill="url(#paint0_linear_138_346)" />
    <path
        d="M26.6545 3.5H5.34549C4.85603 3.5 4.38663 3.69443 4.04053 4.04053C3.69443 4.38663 3.5 4.85603 3.5 5.34549V26.6545C3.5 27.144 3.69443 27.6134 4.04053 27.9595C4.38663 28.3056 4.85603 28.5 5.34549 28.5H26.6545C27.144 28.5 27.6134 28.3056 27.9595 27.9595C28.3056 27.6134 28.5 27.144 28.5 26.6545V5.34549C28.5 4.85603 28.3056 4.38663 27.9595 4.04053C27.6134 3.69443 27.144 3.5 26.6545 3.5ZM10.9514 24.7969H7.19271V12.8576H10.9514V24.7969ZM9.06944 11.2031C8.64309 11.2007 8.227 11.0721 7.87368 10.8334C7.52037 10.5948 7.24567 10.2568 7.08425 9.86218C6.92283 9.46755 6.88192 9.03395 6.9667 8.6161C7.05147 8.19825 7.25813 7.81487 7.56058 7.51436C7.86303 7.21384 8.24772 7.00965 8.66611 6.92756C9.0845 6.84547 9.51783 6.88916 9.91141 7.05311C10.305 7.21706 10.6412 7.49392 10.8776 7.84876C11.1139 8.2036 11.2399 8.62051 11.2396 9.04688C11.2436 9.33233 11.1901 9.61567 11.0823 9.88C10.9745 10.1443 10.8146 10.3843 10.6121 10.5855C10.4095 10.7867 10.1686 10.9451 9.90357 11.0512C9.63854 11.1573 9.35486 11.209 9.06944 11.2031ZM24.8056 24.8073H21.0486V18.2847C21.0486 16.3611 20.2309 15.7674 19.1753 15.7674C18.0608 15.7674 16.967 16.6076 16.967 18.3333V24.8073H13.2083V12.8663H16.8229V14.5208H16.8715C17.2344 13.7865 18.5052 12.5313 20.4444 12.5313C22.5417 12.5313 24.8073 13.776 24.8073 17.4219L24.8056 24.8073Z"
        fill="url(#paint1_linear_138_346)" />
    <defs>
        <linearGradient id="paint0_linear_138_346" x1="16" y1="0" x2="16" y2="32"
            gradientUnits="userSpaceOnUse">
            <stop stop-color="#414141" />
            <stop offset="1" stop-color="#212121" />
        </linearGradient>
        <linearGradient id="paint1_linear_138_346" x1="16" y1="3.5" x2="16" y2="28.5"
            gradientUnits="userSpaceOnUse">
            <stop stop-color="white" />
            <stop offset="1" stop-color="#CFE7FF" stop-opacity="0.7" />
        </linearGradient>
    </defs>
</svg>
    