<svg width="96" height="97" viewBox="0 0 96 97" fill="none" xmlns="http://www.w3.org/2000/svg">
<g clip-path="url(#clip0_138_134)">
<path d="M96 48.5C96 21.9903 74.5097 0.5 48 0.5C21.4903 0.5 0 21.9903 0 48.5C0 75.0097 21.4903 96.5 48 96.5C74.5097 96.5 96 75.0097 96 48.5Z" fill="url(#paint0_linear_138_134)"/>
<path d="M81.5 48.5C81.5 29.9985 66.5015 15 48 15C29.4985 15 14.5 29.9985 14.5 48.5C14.5 67.0015 29.4985 82 48 82C66.5015 82 81.5 67.0015 81.5 48.5Z" fill="#1C1C21"/>
<path d="M81.5 48.5C81.5 29.9985 66.5015 15 48 15C29.4985 15 14.5 29.9985 14.5 48.5C14.5 67.0015 29.4985 82 48 82C66.5015 82 81.5 67.0015 81.5 48.5Z" stroke="url(#paint1_linear_138_134)"/>
<mask id="mask0_138_134" style="mask-type:luminance" maskUnits="userSpaceOnUse" x="28" y="28" width="40" height="41">
<path d="M63 28.5H33C30.2386 28.5 28 30.7386 28 33.5V63.5C28 66.2614 30.2386 68.5 33 68.5H63C65.7614 68.5 68 66.2614 68 63.5V33.5C68 30.7386 65.7614 28.5 63 28.5Z" fill="white"/>
</mask>
<g mask="url(#mask0_138_134)">
<g filter="url(#filter0_d_138_134)">
<path d="M54.667 41.833L59.667 41.834C60.6559 41.834 61.6226 41.5407 62.4448 40.9913C63.2671 40.4419 63.908 39.661 64.2864 38.7474C64.6648 37.8338 64.7638 36.8284 64.5709 35.8585C64.378 34.8886 63.9018 33.9977 63.2025 33.2985C62.5033 32.5992 61.6123 32.123 60.6424 31.9301C59.6725 31.7371 58.6672 31.8362 57.7536 32.2146C56.8399 32.593 56.059 33.2339 55.5096 34.0561C54.9602 34.8784 54.667 35.8451 54.667 36.834V41.833L41.334 41.834V36.834C41.334 35.8451 41.0407 34.8784 40.4913 34.0561C39.9419 33.2339 39.161 32.593 38.2474 32.2146C37.3338 31.8362 36.3284 31.7371 35.3585 31.9301C34.3886 32.123 33.4977 32.5992 32.7985 33.2985C32.0992 33.9977 31.623 34.8886 31.4301 35.8585C31.2371 36.8284 31.3362 37.8338 31.7146 38.7474C32.093 39.661 32.7339 40.4419 33.5561 40.9913C34.3784 41.5407 35.3451 41.834 36.334 41.834H41.334V55.167H54.667V41.833Z" fill="url(#paint2_radial_138_134)"/>
<path d="M54.667 55.167H59.667C60.6559 55.167 61.6225 55.4602 62.4447 56.0096C63.267 56.5589 63.9078 57.3398 64.2863 58.2533C64.6648 59.1669 64.7638 60.1722 64.571 61.1421C64.3781 62.112 63.902 63.0029 63.2029 63.7022C62.5037 64.4015 61.6129 64.8778 60.6431 65.0708C59.6732 65.2638 58.6679 65.165 57.7543 64.7867C56.8406 64.4084 56.0597 63.7677 55.5101 62.9456C54.9606 62.1235 54.6672 61.1569 54.667 60.168V55.167Z" fill="url(#paint3_radial_138_134)"/>
<path d="M36.334 55.168H41.334V60.168C41.334 61.1569 41.0407 62.1236 40.4913 62.9458C39.9419 63.7681 39.161 64.4089 38.2474 64.7874C37.3338 65.1658 36.3284 65.2648 35.3585 65.0719C34.3886 64.879 33.4977 64.4028 32.7985 63.7035C32.0992 63.0042 31.623 62.1133 31.4301 61.1434C31.2371 60.1735 31.3362 59.1682 31.7146 58.2546C32.093 57.3409 32.7339 56.56 33.5561 56.0106C34.3784 55.4612 35.3451 55.168 36.334 55.168Z" fill="url(#paint4_radial_138_134)"/>
<mask id="mask1_138_134" style="mask-type:luminance" maskUnits="userSpaceOnUse" x="31" y="31" width="34" height="35">
<path d="M54.667 41.833L59.667 41.834C60.6559 41.834 61.6226 41.5407 62.4448 40.9913C63.2671 40.4419 63.908 39.661 64.2864 38.7474C64.6648 37.8338 64.7638 36.8284 64.5709 35.8585C64.378 34.8886 63.9018 33.9977 63.2025 33.2985C62.5033 32.5992 61.6123 32.123 60.6424 31.9301C59.6725 31.7371 58.6672 31.8362 57.7536 32.2146C56.8399 32.593 56.059 33.2339 55.5096 34.0561C54.9602 34.8784 54.667 35.8451 54.667 36.834V41.833L41.334 41.834V36.834C41.334 35.8451 41.0407 34.8784 40.4913 34.0561C39.9419 33.2339 39.161 32.593 38.2474 32.2146C37.3338 31.8362 36.3284 31.7371 35.3585 31.9301C34.3886 32.123 33.4977 32.5992 32.7985 33.2985C32.0992 33.9977 31.623 34.8886 31.4301 35.8585C31.2371 36.8284 31.3362 37.8338 31.7146 38.7474C32.093 39.661 32.7339 40.4419 33.5561 40.9913C34.3784 41.5407 35.3451 41.834 36.334 41.834H41.334V55.167H54.667V41.833ZM54.667 55.167H59.667C60.6559 55.167 61.6225 55.4602 62.4447 56.0096C63.267 56.5589 63.9078 57.3398 64.2863 58.2533C64.6648 59.1669 64.7638 60.1722 64.571 61.1421C64.3781 62.1119 63.902 63.0029 63.2029 63.7022C62.5037 64.4015 61.6129 64.8778 60.643 65.0708C59.6732 65.2638 58.6679 65.165 57.7543 64.7867C56.8406 64.4084 56.0597 63.7677 55.5101 62.9456C54.9606 62.1235 54.6672 61.1569 54.667 60.168V55.167ZM36.334 55.168L41.334 55.167V60.168C41.334 61.1569 41.0407 62.1236 40.4913 62.9458C39.9419 63.7681 39.161 64.409 38.2474 64.7874C37.3338 65.1658 36.3284 65.2648 35.3585 65.0719C34.3886 64.879 33.4977 64.4028 32.7985 63.7035C32.0992 63.0043 31.623 62.1133 31.4301 61.1434C31.2371 60.1735 31.3362 59.1682 31.7146 58.2546C32.093 57.3409 32.7339 56.56 33.5561 56.0106C34.3784 55.4612 35.3451 55.168 36.334 55.168Z" fill="white"/>
</mask>
<g mask="url(#mask1_138_134)">
<path d="M41.334 55.167H40.834V55.667H41.334V55.167ZM41.334 55.167L41.834 55.168V54.668H41.334V55.167ZM59.667 41.334H54.667V42.334H59.667V41.334ZM64.167 36.834C64.167 38.0275 63.6929 39.1721 62.849 40.016C62.0051 40.8599 60.8605 41.334 59.667 41.334V42.334C61.1255 42.334 62.5243 41.7547 63.5557 40.7234C64.5872 39.6922 65.1667 38.2935 65.167 36.835L64.167 36.834ZM59.668 32.334C60.8615 32.334 62.0061 32.8081 62.85 33.652C63.6939 34.4959 64.167 35.6405 64.167 36.834L65.167 36.835C65.167 35.3763 64.5885 33.9773 63.5571 32.9459C62.5256 31.9144 61.1267 31.334 59.668 31.334V32.334ZM55.168 36.834C55.168 35.6405 55.6421 34.4959 56.486 33.652C57.3299 32.8081 58.4745 32.334 59.668 32.334V31.334C58.2093 31.334 56.8104 31.9134 55.7789 32.9449C54.7475 33.9763 54.168 35.3753 54.168 36.834H55.168ZM55.167 41.834L55.168 36.834H54.168L54.167 41.834H55.167ZM41.334 42.334H54.667V41.334H41.334V42.334ZM40.833 36.834L40.834 41.834H41.834V36.834H40.833ZM36.333 32.334C37.5265 32.334 38.6711 32.8081 39.515 33.652C40.3589 34.4959 40.833 35.6405 40.833 36.834H41.834C41.834 36.1117 41.6907 35.3965 41.4143 34.7292C41.1379 34.0619 40.7328 33.4556 40.2221 32.9449C39.7114 32.4342 39.1051 32.029 38.4378 31.7526C37.7705 31.4762 37.0553 31.334 36.333 31.334V32.334ZM31.833 36.834C31.833 35.6405 32.3071 34.4959 33.151 33.652C33.9949 32.8081 35.1395 32.334 36.333 32.334V31.334C35.6107 31.334 34.8954 31.4763 34.228 31.7527C33.5607 32.0292 32.9543 32.4344 32.4436 32.9453C31.9328 33.4561 31.5277 34.0625 31.2514 34.7299C30.975 35.3973 30.8329 36.1126 30.833 36.835L31.833 36.834ZM36.334 41.334C35.1405 41.334 33.9959 40.8599 33.152 40.016C32.3081 39.1721 31.833 38.0275 31.833 36.834L30.833 36.835C30.833 38.2937 31.4135 39.6926 32.4449 40.7241C33.4764 41.7555 34.8753 42.335 36.334 42.335V41.334ZM41.334 41.334H36.334V42.335L41.334 42.334V41.334ZM41.834 55.168V41.834H40.834V55.167L41.834 55.168ZM54.667 54.667H41.333L41.334 55.667H54.667V54.667ZM54.167 41.834V55.167H55.167V41.834H54.167ZM59.667 54.668L54.667 54.667V55.667H59.667V54.668ZM65.167 60.167C65.167 58.7083 64.5875 57.3093 63.5561 56.2779C62.5246 55.2464 61.1257 54.668 59.667 54.668V55.667C60.8605 55.667 62.0051 56.1411 62.849 56.985C63.6929 57.8289 64.167 58.9735 64.167 60.167H65.167ZM59.668 65.667C60.3903 65.667 61.1055 65.5247 61.7728 65.2483C62.4401 64.9719 63.0464 64.5668 63.5571 64.0561C64.0678 63.5453 64.4729 62.939 64.7493 62.2717C65.0257 61.6045 65.167 60.8893 65.167 60.167H64.167C64.167 61.3605 63.6939 62.5051 62.85 63.349C62.0061 64.1929 60.8615 64.667 59.668 64.667V65.667ZM54.168 60.168C54.168 60.8903 54.3103 61.6055 54.5867 62.2727C54.8631 62.94 55.2682 63.5463 55.7789 64.0571C56.2896 64.5678 56.896 64.9729 57.5632 65.2493C58.2305 65.5257 58.9457 65.667 59.668 65.667V64.667C58.4745 64.667 57.3299 64.1939 56.486 63.35C55.6421 62.5061 55.168 61.3615 55.168 60.168H54.168ZM54.167 55.167L54.168 60.168H55.168L55.167 55.167H54.167ZM41.334 54.668H36.334V55.668L41.334 55.667V54.668ZM41.834 60.168V55.168L40.834 55.167V60.168H41.834ZM36.332 65.668C37.0544 65.6681 37.7697 65.526 38.4371 65.2496C39.1045 64.9733 39.7109 64.5682 40.2217 64.0574C40.7326 63.5467 41.1378 62.9403 41.4142 62.273C41.6907 61.6056 41.834 60.8903 41.834 60.168H40.834C40.834 61.3615 40.3589 62.5061 39.515 63.35C38.6711 64.1939 37.5265 64.668 36.333 64.668L36.332 65.668ZM30.834 60.167C30.834 61.6257 31.4125 63.0246 32.4439 64.0561C33.4754 65.0875 34.8743 65.667 36.333 65.667V64.668C35.1395 64.668 33.9949 64.1929 33.151 63.349C32.3071 62.5051 31.833 61.3605 31.833 60.167H30.834ZM36.334 54.668C34.8753 54.668 33.4764 55.2464 32.4449 56.2779C31.4135 57.3093 30.834 58.7083 30.834 60.167H31.833C31.833 58.9735 32.3081 57.8289 33.152 56.985C33.9959 56.1411 35.1405 55.668 36.334 55.668V54.668Z" fill="url(#paint5_linear_138_134)"/>
</g>
</g>
</g>
</g>
<defs>
<filter id="filter0_d_138_134" x="24.334" y="27.834" width="47.333" height="47.334" filterUnits="userSpaceOnUse" color-interpolation-filters="sRGB">
<feFlood flood-opacity="0" result="BackgroundImageFix"/>
<feColorMatrix in="SourceAlpha" type="matrix" values="0 0 0 0 0 0 0 0 0 0 0 0 0 0 0 0 0 0 127 0" result="hardAlpha"/>
<feOffset dy="3"/>
<feGaussianBlur stdDeviation="3.5"/>
<feComposite in2="hardAlpha" operator="out"/>
<feColorMatrix type="matrix" values="0 0 0 0 0 0 0 0 0 0 0 0 0 0 0 0 0 0 0.18 0"/>
<feBlend mode="normal" in2="BackgroundImageFix" result="effect1_dropShadow_138_134"/>
<feBlend mode="normal" in="SourceGraphic" in2="effect1_dropShadow_138_134" result="shape"/>
</filter>
<linearGradient id="paint0_linear_138_134" x1="48" y1="0.5" x2="48" y2="96.5" gradientUnits="userSpaceOnUse">
<stop stop-color="#131316"/>
<stop offset="1" stop-color="#131316" stop-opacity="0"/>
</linearGradient>
<linearGradient id="paint1_linear_138_134" x1="48" y1="14.5" x2="48" y2="82.5" gradientUnits="userSpaceOnUse">
<stop stop-color="#474752"/>
<stop offset="1" stop-color="#474752" stop-opacity="0"/>
</linearGradient>
<radialGradient id="paint2_radial_138_134" cx="0" cy="0" r="1" gradientUnits="userSpaceOnUse" gradientTransform="translate(48 30.247) rotate(90) scale(57.9365 57.9379)">
<stop stop-color="white"/>
<stop offset="1" stop-color="white" stop-opacity="0"/>
</radialGradient>
<radialGradient id="paint3_radial_138_134" cx="0" cy="0" r="1" gradientUnits="userSpaceOnUse" gradientTransform="translate(48 30.247) rotate(90) scale(57.9365 57.9379)">
<stop stop-color="white"/>
<stop offset="1" stop-color="white" stop-opacity="0"/>
</radialGradient>
<radialGradient id="paint4_radial_138_134" cx="0" cy="0" r="1" gradientUnits="userSpaceOnUse" gradientTransform="translate(48 30.247) rotate(90) scale(57.9365 57.9379)">
<stop stop-color="white"/>
<stop offset="1" stop-color="white" stop-opacity="0"/>
</radialGradient>
<linearGradient id="paint5_linear_138_134" x1="48" y1="31.834" x2="48" y2="65.168" gradientUnits="userSpaceOnUse">
<stop offset="0.735" stop-color="white" stop-opacity="0"/>
<stop offset="1" stop-color="white" stop-opacity="0.8"/>
</linearGradient>
<clipPath id="clip0_138_134">
<rect width="96" height="96" fill="white" transform="translate(0 0.5)"/>
</clipPath>
</defs>
</svg>
