<svg width="96" height="96" viewBox="0 0 96 96" fill="none" xmlns="http://www.w3.org/2000/svg">
    <path fill-rule="evenodd" clip-rule="evenodd"
        d="M56.8 33.2C57.1183 33.2 57.4235 33.3264 57.6485 33.5515C57.8736 33.7765 58 34.0817 58 34.4V38H61.6C61.9183 38 62.2235 38.1264 62.4485 38.3515C62.6736 38.5765 62.8 38.8817 62.8 39.2C62.8 39.5183 62.6736 39.8235 62.4485 40.0485C62.2235 40.2736 61.9183 40.4 61.6 40.4H58V44C58 44.3183 57.8736 44.6235 57.6485 44.8485C57.4235 45.0736 57.1183 45.2 56.8 45.2C56.4817 45.2 56.1765 45.0736 55.9515 44.8485C55.7264 44.6235 55.6 44.3183 55.6 44V40.4H52C51.6817 40.4 51.3765 40.2736 51.1515 40.0485C50.9264 39.8235 50.8 39.5183 50.8 39.2C50.8 38.8817 50.9264 38.5765 51.1515 38.3515C51.3765 38.1264 51.6817 38 52 38H55.6V34.4C55.6 34.0817 55.7264 33.7765 55.9515 33.5515C56.1765 33.3264 56.4817 33.2 56.8 33.2Z"
        fill="url(#paint0_linear_308_707)" />
    <path
        d="M32 39.2C32 35.8064 32 34.1088 33.0544 33.0544C34.1088 32 35.8064 32 39.2 32C42.5936 32 44.2912 32 45.3456 33.0544C46.4 34.1088 46.4 35.8064 46.4 39.2C46.4 42.5936 46.4 44.2912 45.3456 45.3456C44.2912 46.4 42.5936 46.4 39.2 46.4C35.8064 46.4 34.1088 46.4 33.0544 45.3456C32 44.2912 32 42.5936 32 39.2ZM49.6 56.8C49.6 53.4064 49.6 51.7088 50.6544 50.6544C51.7088 49.6 53.4064 49.6 56.8 49.6C60.1936 49.6 61.8912 49.6 62.9456 50.6544C64 51.7088 64 53.4064 64 56.8C64 60.1936 64 61.8912 62.9456 62.9456C61.8912 64 60.1936 64 56.8 64C53.4064 64 51.7088 64 50.6544 62.9456C49.6 61.8912 49.6 60.1936 49.6 56.8ZM32 56.8C32 53.4064 32 51.7088 33.0544 50.6544C34.1088 49.6 35.8064 49.6 39.2 49.6C42.5936 49.6 44.2912 49.6 45.3456 50.6544C46.4 51.7088 46.4 53.4064 46.4 56.8C46.4 60.1936 46.4 61.8912 45.3456 62.9456C44.2912 64 42.5936 64 39.2 64C35.8064 64 34.1088 64 33.0544 62.9456C32 61.8912 32 60.1936 32 56.8Z"
        fill="url(#paint1_linear_308_707)" />
    <path
        d="M57.75 38V38.25H58H61.6C61.852 38.25 62.0936 38.3501 62.2718 38.5282C62.4499 38.7064 62.55 38.948 62.55 39.2C62.55 39.452 62.4499 39.6936 62.2718 39.8718C62.0936 40.0499 61.852 40.15 61.6 40.15H58H57.75V40.4V44C57.75 44.252 57.6499 44.4936 57.4718 44.6718C57.2936 44.8499 57.052 44.95 56.8 44.95C56.548 44.95 56.3064 44.8499 56.1282 44.6718C55.9501 44.4936 55.85 44.252 55.85 44V40.4V40.15H55.6H52C51.748 40.15 51.5064 40.0499 51.3282 39.8718C51.1501 39.6936 51.05 39.452 51.05 39.2C51.05 38.948 51.1501 38.7064 51.3282 38.5282C51.5064 38.3501 51.748 38.25 52 38.25H55.6H55.85V38V34.4C55.85 34.148 55.9501 33.9064 56.1282 33.7282C56.3064 33.5501 56.548 33.45 56.8 33.45C57.052 33.45 57.2936 33.5501 57.4718 33.7282C57.6499 33.9064 57.75 34.148 57.75 34.4V38ZM32.25 39.2C32.25 37.4961 32.2505 36.2432 32.3796 35.2833C32.5076 34.3306 32.7582 33.7042 33.2312 33.2312C33.7042 32.7582 34.3306 32.5076 35.2833 32.3796C36.2432 32.2505 37.4961 32.25 39.2 32.25C40.9039 32.25 42.1568 32.2505 43.1167 32.3796C44.0694 32.5076 44.6958 32.7582 45.1688 33.2312C45.6418 33.7042 45.8924 34.3306 46.0204 35.2833C46.1495 36.2432 46.15 37.4961 46.15 39.2C46.15 40.9039 46.1495 42.1568 46.0204 43.1167C45.8924 44.0694 45.6418 44.6958 45.1688 45.1688C44.6958 45.6418 44.0694 45.8924 43.1167 46.0204C42.1568 46.1495 40.9039 46.15 39.2 46.15C37.4961 46.15 36.2432 46.1495 35.2833 46.0204C34.3306 45.8924 33.7042 45.6418 33.2312 45.1688C32.7582 44.6958 32.5076 44.0694 32.3796 43.1167C32.2505 42.1568 32.25 40.9039 32.25 39.2ZM49.85 56.8C49.85 55.0961 49.8505 53.8432 49.9796 52.8833C50.1076 51.9306 50.3582 51.3042 50.8312 50.8312C51.3042 50.3582 51.9306 50.1076 52.8833 49.9796C53.8432 49.8505 55.0961 49.85 56.8 49.85C58.5039 49.85 59.7568 49.8505 60.7167 49.9796C61.6694 50.1076 62.2958 50.3582 62.7688 50.8312C63.2418 51.3042 63.4924 51.9306 63.6204 52.8833C63.7495 53.8432 63.75 55.0961 63.75 56.8C63.75 58.5039 63.7495 59.7568 63.6204 60.7167C63.4924 61.6694 63.2418 62.2958 62.7688 62.7688C62.2958 63.2418 61.6694 63.4924 60.7167 63.6204C59.7568 63.7495 58.5039 63.75 56.8 63.75C55.0961 63.75 53.8432 63.7495 52.8833 63.6204C51.9306 63.4924 51.3042 63.2418 50.8312 62.7688C50.3582 62.2958 50.1076 61.6694 49.9796 60.7167C49.8505 59.7568 49.85 58.5039 49.85 56.8ZM32.25 56.8C32.25 55.0961 32.2505 53.8432 32.3796 52.8833C32.5076 51.9306 32.7582 51.3042 33.2312 50.8312C33.7042 50.3582 34.3306 50.1076 35.2833 49.9796C36.2432 49.8505 37.4961 49.85 39.2 49.85C40.9039 49.85 42.1568 49.8505 43.1167 49.9796C44.0694 50.1076 44.6958 50.3582 45.1688 50.8312C45.6418 51.3042 45.8924 51.9306 46.0204 52.8833C46.1495 53.8432 46.15 55.0961 46.15 56.8C46.15 58.5039 46.1495 59.7568 46.0204 60.7167C45.8924 61.6694 45.6418 62.2958 45.1688 62.7688C44.6958 63.2418 44.0694 63.4924 43.1167 63.6204C42.1568 63.7495 40.9039 63.75 39.2 63.75C37.4961 63.75 36.2432 63.7495 35.2833 63.6204C34.3306 63.4924 33.7042 63.2418 33.2312 62.7688C32.7582 62.2958 32.5076 61.6694 32.3796 60.7167C32.2505 59.7568 32.25 58.5039 32.25 56.8Z"
        stroke="white" stroke-opacity="0.25" stroke-width="0.5" />
    <defs>
        <linearGradient id="paint0_linear_308_707" x1="48" y1="32" x2="48" y2="64"
            gradientUnits="userSpaceOnUse">
            <stop stop-color="white" />
            <stop offset="1" stop-color="#CFE7FF" stop-opacity="0.7" />
        </linearGradient>
        <linearGradient id="paint1_linear_308_707" x1="48" y1="32" x2="48" y2="64"
            gradientUnits="userSpaceOnUse">
            <stop stop-color="white" />
            <stop offset="1" stop-color="#CFE7FF" stop-opacity="0.7" />
        </linearGradient>
    </defs>
</svg>
    