<svg width="96" height="96" viewBox="0 0 96 96" fill="none" xmlns="http://www.w3.org/2000/svg">
    <path fill-rule="evenodd" clip-rule="evenodd"
        d="M33 30.083C33.69 30.083 34.25 30.643 34.25 31.333V64.667C34.25 64.9985 34.1183 65.3165 33.8839 65.5509C33.6495 65.7853 33.3315 65.917 33 65.917C32.6685 65.917 32.3505 65.7853 32.1161 65.5509C31.8817 65.3165 31.75 64.9985 31.75 64.667V31.333C31.75 30.643 32.31 30.083 33 30.083ZM63 30.083C63.69 30.083 64.25 30.643 64.25 31.333V64.667C64.25 64.9985 64.1183 65.3165 63.8839 65.5509C63.6495 65.7853 63.3315 65.917 63 65.917C62.6685 65.917 62.3505 65.7853 62.1161 65.5509C61.8817 65.3165 61.75 64.9985 61.75 64.667V31.333C61.75 30.643 62.31 30.083 63 30.083Z"
        fill="url(#paint0_linear_308_717)" />
    <path
        d="M48 34.667C44.857 34.667 43.286 34.667 42.31 35.643C41.333 36.619 41.333 38.191 41.333 41.333V54.667C41.333 57.809 41.333 59.381 42.31 60.357C43.286 61.333 44.857 61.333 48 61.333C51.143 61.333 52.714 61.333 53.69 60.357C54.667 59.381 54.667 57.809 54.667 54.667V41.333C54.667 38.191 54.667 36.619 53.69 35.643C52.714 34.667 51.143 34.667 48 34.667Z"
        fill="url(#paint1_linear_308_717)" />
    <path
        d="M42.4867 35.8199L42.4868 35.8198C42.9206 35.386 43.4958 35.1551 44.3757 35.0368C45.2628 34.9175 46.4214 34.917 48 34.917C49.5786 34.917 50.7372 34.9175 51.6243 35.0368C52.5042 35.1551 53.0794 35.386 53.5132 35.8198L53.5133 35.8199C53.9476 36.2537 54.1787 36.8291 54.2971 37.7091C54.4165 38.5963 54.417 39.7549 54.417 41.333V54.667C54.417 56.2451 54.4165 57.4037 54.2971 58.2909C54.1787 59.1709 53.9476 59.7463 53.5133 60.1801L53.5132 60.1802C53.0794 60.614 52.5042 60.845 51.6243 60.9632C50.7372 61.0825 49.5786 61.083 48 61.083C46.4214 61.083 45.2628 61.0825 44.3757 60.9632C43.4958 60.845 42.9206 60.614 42.4868 60.1802L42.4867 60.1801C42.0524 59.7463 41.8213 59.1709 41.7029 58.2909C41.5835 57.4037 41.583 56.2451 41.583 54.667V41.333C41.583 39.7549 41.5835 38.5963 41.7029 37.7091C41.8213 36.8291 42.0524 36.2537 42.4867 35.8199ZM33 30.333C33.5519 30.333 34 30.7811 34 31.333V64.667C34 64.9322 33.8946 65.1866 33.7071 65.3741C33.5196 65.5616 33.2652 65.667 33 65.667C32.7348 65.667 32.4804 65.5616 32.2929 65.3741C32.1054 65.1866 32 64.9322 32 64.667V31.333C32 30.7811 32.4481 30.333 33 30.333ZM63 30.333C63.5519 30.333 64 30.7811 64 31.333V64.667C64 64.9322 63.8946 65.1866 63.7071 65.3741C63.5196 65.5616 63.2652 65.667 63 65.667C62.7348 65.667 62.4804 65.5616 62.2929 65.3741C62.1054 65.1866 62 64.9322 62 64.667V31.333C62 30.7811 62.4481 30.333 63 30.333Z"
        stroke="white" stroke-opacity="0.25" stroke-width="0.5" />
    <defs>
        <linearGradient id="paint0_linear_308_717" x1="48" y1="30.083" x2="48" y2="65.917"
            gradientUnits="userSpaceOnUse">
            <stop stop-color="white" />
            <stop offset="1" stop-color="#CFE7FF" stop-opacity="0.7" />
        </linearGradient>
        <linearGradient id="paint1_linear_308_717" x1="48" y1="30.083" x2="48" y2="65.917"
            gradientUnits="userSpaceOnUse">
            <stop stop-color="white" />
            <stop offset="1" stop-color="#CFE7FF" stop-opacity="0.7" />
        </linearGradient>
    </defs>
</svg>
    