<svg width="96" height="96" viewBox="0 0 96 96" fill="none" xmlns="http://www.w3.org/2000/svg">
    <path
        d="M54.667 41.333L59.667 41.334C60.6559 41.334 61.6226 41.0407 62.4449 40.4913C63.2671 39.9419 63.908 39.161 64.2864 38.2474C64.6648 37.3338 64.7638 36.3284 64.5709 35.3585C64.378 34.3886 63.9018 33.4977 63.2025 32.7985C62.5033 32.0992 61.6124 31.623 60.6425 31.4301C59.6725 31.2371 58.6672 31.3362 57.7536 31.7146C56.84 32.093 56.0591 32.7339 55.5097 33.5561C54.9602 34.3784 54.667 35.3451 54.667 36.334V41.333L41.334 41.334V36.334C41.334 35.3451 41.0408 34.3784 40.4913 33.5561C39.9419 32.7339 39.161 32.093 38.2474 31.7146C37.3338 31.3362 36.3285 31.2371 35.3585 31.4301C34.3886 31.623 33.4977 32.0992 32.7985 32.7985C32.0992 33.4977 31.623 34.3886 31.4301 35.3585C31.2371 36.3284 31.3362 37.3338 31.7146 38.2474C32.093 39.161 32.7339 39.9419 33.5561 40.4913C34.3784 41.0407 35.3451 41.334 36.334 41.334H41.334V54.667H54.667V41.333Z"
        fill="url(#paint0_linear_308_712)" />
    <path
        d="M54.667 54.667H59.667C60.6559 54.667 61.6225 54.9602 62.4447 55.5096C63.267 56.0589 63.9078 56.8398 64.2863 57.7533C64.6648 58.6669 64.7638 59.6722 64.571 60.6421C64.3782 61.6119 63.9021 62.5029 63.2029 63.2022C62.5037 63.9015 61.6129 64.3777 60.6431 64.5708C59.6732 64.7638 58.6679 64.665 57.7543 64.2867C56.8406 63.9084 56.0597 63.2677 55.5101 62.4456C54.9606 61.6235 54.6672 60.6568 54.667 59.668V54.667Z"
        fill="url(#paint1_linear_308_712)" />
    <path
        d="M36.334 54.668L41.334 54.667V59.668C41.334 60.6569 41.0408 61.6236 40.4913 62.4458C39.9419 63.2681 39.161 63.9089 38.2474 64.2874C37.3338 64.6658 36.3285 64.7648 35.3585 64.5719C34.3886 64.379 33.4977 63.9028 32.7985 63.2035C32.0992 62.5043 31.623 61.6133 31.4301 60.6434C31.2371 59.6735 31.3362 58.6682 31.7146 57.7546C32.093 56.8409 32.7339 56.06 33.5561 55.5106C34.3784 54.9612 35.3451 54.668 36.334 54.668Z"
        fill="url(#paint2_linear_308_712)" />
    <path
        d="M41.584 54.4169V41.584L54.417 41.583V54.417H41.584V54.4169ZM36.3341 54.918L41.084 54.917V59.668C41.084 60.6074 40.8054 61.5258 40.2835 62.3069C39.7615 63.0881 39.0197 63.6969 38.1517 64.0564C37.2838 64.4159 36.3287 64.51 35.4073 64.3267C34.4859 64.1434 33.6395 63.691 32.9752 63.0267C32.3109 62.3624 31.8585 61.5161 31.6753 60.5947C31.492 59.6733 31.5861 58.7182 31.9456 57.8502C32.3051 56.9823 32.9139 56.2404 33.695 55.7185C34.4762 55.1966 35.3945 54.918 36.334 54.918H36.3341ZM59.667 41.084L54.917 41.083V36.334C54.917 35.3945 55.1956 34.4762 55.7175 33.695C56.2395 32.9139 56.9813 32.3051 57.8493 31.9456C58.7172 31.586 59.6723 31.492 60.5937 31.6753C61.5151 31.8585 62.3615 32.3109 63.0258 32.9752C63.6901 33.6395 64.1425 34.4859 64.3257 35.4073C64.509 36.3287 64.4149 37.2838 64.0554 38.1517C63.6959 39.0197 63.0871 39.7615 62.306 40.2835C61.5248 40.8054 60.6065 41.084 59.667 41.084C59.667 41.084 59.667 41.084 59.667 41.084ZM41.084 36.334V41.084H36.334C35.3945 41.084 34.4762 40.8054 33.695 40.2835C32.9139 39.7615 32.3051 39.0197 31.9456 38.1517C31.5861 37.2838 31.492 36.3287 31.6753 35.4073C31.8585 34.4859 32.3109 33.6395 32.9752 32.9752C33.6395 32.3109 34.4859 31.8585 35.4073 31.6753C36.3287 31.492 37.2838 31.586 38.1517 31.9456C39.0197 32.3051 39.7615 32.9139 40.2835 33.695C40.8054 34.4762 41.084 35.3945 41.084 36.334ZM54.917 54.917H59.667C60.6064 54.917 61.5247 55.1955 62.3059 55.7174C63.087 56.2393 63.6958 56.9811 64.0553 57.849C64.4149 58.7169 64.509 59.6719 64.3258 60.5933C64.1426 61.5147 63.6903 62.3611 63.0261 63.0254C62.3619 63.6897 61.5156 64.1422 60.5943 64.3256C59.6729 64.509 58.7179 64.4151 57.8499 64.0557C56.9819 63.6963 56.24 63.0876 55.718 62.3066C55.1959 61.5256 54.9172 60.6074 54.917 59.668C54.917 59.668 54.917 59.668 54.917 59.6679V54.917Z"
        stroke="white" stroke-opacity="0.25" stroke-width="0.5" />
    <defs>
        <linearGradient id="paint0_linear_308_712" x1="48.0005" y1="31.334" x2="48.0005" y2="64.668"
            gradientUnits="userSpaceOnUse">
            <stop stop-color="white" />
            <stop offset="1" stop-color="#CFE7FF" stop-opacity="0.7" />
        </linearGradient>
        <linearGradient id="paint1_linear_308_712" x1="48.0005" y1="31.334" x2="48.0005" y2="64.668"
            gradientUnits="userSpaceOnUse">
            <stop stop-color="white" />
            <stop offset="1" stop-color="#CFE7FF" stop-opacity="0.7" />
        </linearGradient>
        <linearGradient id="paint2_linear_308_712" x1="48.0005" y1="31.334" x2="48.0005" y2="64.668"
            gradientUnits="userSpaceOnUse">
            <stop stop-color="white" />
            <stop offset="1" stop-color="#CFE7FF" stop-opacity="0.7" />
        </linearGradient>
    </defs>
</svg>
    