<svg width="73" height="56" viewBox="0 0 73 56" fill="none" xmlns="http://www.w3.org/2000/svg">
    <path
        d="M70.2072 16.4179C69.8101 13.4756 67.8606 10.9538 65.1133 9.82799C60.1394 7.78685 39.4752 5.14086 39.4752 5.14086C39.4752 5.14086 18.8112 2.49491 13.4833 3.21693C10.541 3.61417 8.01919 5.56349 6.89342 8.31075C4.85226 13.2849 3.47529 24.0384 3.47529 24.0384C3.47529 24.0384 2.09833 34.7921 2.82034 40.12C3.21758 43.0623 5.1669 45.5841 7.91416 46.7098C12.8883 48.751 33.5522 51.397 33.5522 51.397C33.5522 51.397 54.2164 54.0429 59.5442 53.3208C62.4864 52.9237 65.0085 50.9744 66.1341 48.2272C68.1754 43.253 69.5523 32.4994 69.5523 32.4994C69.5523 32.4994 70.9238 21.7451 70.2072 16.4179Z"
        fill="#CDE4FB" />
    <path d="M28.6305 37.3333L47.066 29.6211L31.1685 17.5125L28.6305 37.3333Z" fill="#111113" />
</svg>