<svg width="41" height="52" viewBox="0 0 41 52" fill="none" xmlns="http://www.w3.org/2000/svg">
    <g clip-path="url(#clip0_370_263)">
        <path
            d="M26.3097 1.84902C31.1125 -0.653907 37.0591 1.16942 39.5868 5.9225C42.1146 10.6756 40.2706 16.5558 35.4678 19.0587L31.5186 21.1349C34.9208 21.2592 38.1655 23.1281 39.8645 26.323C42.3923 31.0761 40.5524 36.9564 35.7454 39.4593L14.686 50.5236C9.88319 53.0265 3.93666 51.2032 1.40886 46.4501C-1.11893 41.697 0.725116 35.8168 5.52793 33.3138L9.47709 31.2377C6.07492 31.1134 2.83023 29.2445 1.13122 26.0495C-1.39657 21.2965 0.447473 15.4162 5.25028 12.9133L26.3097 1.84902ZM14.9429 18.3501L27.6896 26.2195L14.9429 34.0515V18.3501Z"
            fill="#CCE4FB" />
        <path d="M14.943 18.3501V34.0514L27.6897 26.2194L14.943 18.3501Z" fill="#0B0C0F" />
    </g>
    <defs>
        <clipPath id="clip0_370_263">
            <rect width="41" height="50.9206" fill="white" transform="translate(0 0.72583)" />
        </clipPath>
    </defs>
</svg>
    