<svg width="33" height="33" viewBox="0 0 33 33" fill="none" xmlns="http://www.w3.org/2000/svg">
<path d="M26.677 13.5555L18.8811 21.3279L20.2933 22.7443L28.0891 14.9719L26.677 13.5555ZM12.9687 21.3279L11.1376 19.5023L9.72551 20.9186L11.5567 22.7443L12.9687 21.3279ZM11.1376 13.616L18.9334 5.84361L17.5213 4.42727L9.72552 12.1997L11.1376 13.616ZM23.7208 3.86682H24.4793V1.86682H23.7208V3.86682ZM28.6585 8.03051V8.78673H30.6585V8.03051H28.6585ZM24.4793 3.86682C25.7282 3.86682 26.5646 3.86893 27.188 3.95249C27.7827 4.03222 28.0315 4.16933 28.194 4.33119L29.6061 2.91486C29.01 2.32051 28.2691 2.07953 27.4537 1.97021C26.6666 1.86471 25.6718 1.86682 24.4793 1.86682V3.86682ZM30.6585 8.03051C30.6585 6.84178 30.6606 5.84933 30.5547 5.06389C30.4449 4.24938 30.2026 3.50961 29.6061 2.91486L28.194 4.33119C28.3559 4.49265 28.4929 4.73953 28.5726 5.33117C28.6564 5.95189 28.6585 6.78507 28.6585 8.03051H30.6585ZM11.1376 19.5023C10.2544 18.6216 9.66471 18.0308 9.28348 17.5327C8.91983 17.0575 8.84195 16.7864 8.84195 16.5591H6.84195C6.84195 17.4014 7.19566 18.0954 7.6952 18.7482C8.17719 19.3779 8.88235 20.078 9.72551 20.9186L11.1376 19.5023ZM11.5567 22.7443C12.3999 23.585 13.102 24.2879 13.7336 24.7684C14.3884 25.2664 15.083 25.6179 15.925 25.6179V23.6179C15.6942 23.6179 15.421 23.5391 14.9445 23.1766C14.4446 22.7964 13.8519 22.2084 12.9687 21.3279L11.5567 22.7443ZM28.0891 14.9719C29.1538 13.9103 29.8963 13.195 30.2862 12.2566L28.4393 11.4893C28.2378 11.9743 27.8577 12.3784 26.677 13.5555L28.0891 14.9719ZM28.6585 8.78673C28.6585 10.4515 28.6407 11.0046 28.4393 11.4893L30.2862 12.2566C30.6762 11.3179 30.6585 10.2879 30.6585 8.78673H28.6585ZM18.9334 5.84361C20.1137 4.66682 20.5194 4.28725 21.007 4.0859L20.2435 2.23733C19.3034 2.62559 18.5865 3.36535 17.5213 4.42727L18.9334 5.84361ZM23.7208 1.86682C22.2145 1.86682 21.1834 1.84921 20.2435 2.23733L21.007 4.0859C21.4949 3.88443 22.0516 3.86682 23.7208 3.86682V1.86682ZM18.8811 21.3279C18.1994 22.0076 17.6865 22.5183 17.2457 22.899C16.8033 23.281 16.5051 23.4674 16.2713 23.5535L16.9625 25.4303C17.533 25.2202 18.0476 24.8491 18.5529 24.4126C19.0601 23.9746 19.6301 23.4055 20.2933 22.7443L18.8811 21.3279ZM16.2713 23.5535C16.1481 23.599 16.0381 23.6179 15.925 23.6179V25.6179C16.2859 25.6179 16.6294 25.553 16.9625 25.4303L16.2713 23.5535ZM9.72552 12.1997C9.07822 12.845 8.51935 13.4015 8.08546 13.8967C7.65335 14.3899 7.28379 14.8891 7.06344 15.4371L8.91903 16.1832C9.01367 15.9479 9.20834 15.65 9.58967 15.2148C9.96922 14.7816 10.473 14.2786 11.1376 13.616L9.72552 12.1997ZM7.06344 15.4371C6.91958 15.7948 6.84195 16.1659 6.84195 16.5591H8.84195C8.84195 16.439 8.86384 16.3204 8.91903 16.1832L7.06344 15.4371Z" fill="white"/>
<path opacity="0.5" d="M7.75651 15.5756L8.46362 14.8684L8.46257 14.8673L7.75651 15.5756ZM13.5515 10.0965C14.016 10.3954 14.6348 10.2612 14.9337 9.79683C15.2325 9.33243 15.0984 8.71365 14.634 8.41474L13.5515 10.0965ZM16.9921 24.8672L16.285 25.5743C16.3005 25.5897 16.3164 25.6047 16.3329 25.6192L16.9921 24.8672ZM24.0905 17.8431C23.7904 17.3795 23.1713 17.2469 22.7077 17.5472C22.2441 17.8473 22.1116 18.4665 22.4117 18.93L24.0905 17.8431ZM17.6893 25.4785L18.3953 24.7703L18.3726 24.7477L18.3485 24.7265L17.6893 25.4785ZM14.634 8.41474L13.795 7.87478L12.7126 9.55655L13.5515 10.0965L14.634 8.41474ZM13.795 7.87478C12.9664 7.3415 12.2977 6.91026 11.7221 6.60011C11.134 6.28319 10.583 6.05842 9.97381 5.96839L9.68142 7.9469C9.97395 7.99013 10.2946 8.10278 10.7734 8.36077C11.2647 8.62553 11.8582 9.00666 12.7126 9.55655L13.795 7.87478ZM3.99831 11.6064C4.74906 10.8579 5.55431 10.0554 6.27797 9.39522C6.63953 9.06538 6.96878 8.78213 7.25121 8.56445C7.54913 8.33482 7.7381 8.22307 7.82787 8.18583L7.06139 6.33853C6.71841 6.48085 6.35867 6.72723 6.03026 6.98037C5.68637 7.24543 5.3117 7.56951 4.93006 7.91766C4.16733 8.61347 3.32915 9.44939 2.58625 10.19L3.99831 11.6064ZM9.97381 5.96839C8.99425 5.82362 7.98702 5.95447 7.06139 6.33853L7.82787 8.18583C8.42877 7.93651 9.07055 7.85662 9.68142 7.9469L9.97381 5.96839ZM3.2697 13.4982L3.77455 13.6983L4.51131 11.8389L4.00646 11.6389L3.2697 13.4982ZM5.7695 15.0065L7.05047 16.2837L8.46257 14.8673L7.18158 13.5903L5.7695 15.0065ZM3.77455 13.6983C3.85939 13.7319 3.89337 13.7453 3.92629 13.7589L4.68817 11.9098C4.63986 11.8899 4.59138 11.8707 4.51131 11.8389L3.77455 13.6983ZM7.18158 13.5903C7.12067 13.5295 7.08378 13.4927 7.0463 13.4564L5.65357 14.8917C5.67909 14.9164 5.70494 14.9423 5.7695 15.0065L7.18158 13.5903ZM3.92629 13.7589C4.56916 14.0239 5.15535 14.4083 5.65357 14.8917L7.0463 13.4564C6.36577 12.796 5.56543 12.2712 4.68817 11.9098L3.92629 13.7589ZM2.58625 10.19C1.55452 11.2186 1.9183 12.9628 3.2697 13.4982L4.00646 11.6389C4.00053 11.6365 3.99811 11.6348 3.99774 11.6345C3.99723 11.6341 3.99791 11.6347 3.99774 11.6345C3.99711 11.6338 3.99402 11.6297 3.99276 11.6236C3.99151 11.6176 3.99234 11.6139 3.99246 11.6134C3.9923 11.6137 3.99247 11.6134 3.99246 11.6134C3.99254 11.6133 3.99399 11.6107 3.99831 11.6064L2.58625 10.19ZM22.4117 18.93L22.9533 19.7665L24.6321 18.6795L24.0905 17.8431L22.4117 18.93ZM20.8976 28.4464L20.7856 28.5581L22.1976 29.9745L22.3097 29.8628L20.8976 28.4464ZM22.9533 19.7665C23.5049 20.6184 23.8872 21.2099 24.1525 21.6996C24.4112 22.1767 24.5238 22.4956 24.5669 22.786L26.5452 22.4919C26.4546 21.8831 26.2288 21.3331 25.9108 20.7464C25.5997 20.1724 25.167 19.5055 24.6321 18.6795L22.9533 19.7665ZM22.3097 29.8628C23.0525 29.1221 23.891 28.2864 24.5889 27.526C24.9381 27.1455 25.2631 26.7719 25.5292 26.4289C25.7829 26.1016 26.0303 25.7425 26.1734 25.3999L24.3278 24.6295C24.2908 24.7183 24.1789 24.9064 23.9486 25.2035C23.7302 25.4849 23.4462 25.8132 23.1154 26.1736C22.4533 26.8951 21.6484 27.698 20.8976 28.4464L22.3097 29.8628ZM24.5669 22.786C24.6572 23.3932 24.5774 24.0315 24.3278 24.6295L26.1734 25.3999C26.5592 24.476 26.6906 23.4701 26.5452 22.4919L24.5669 22.786ZM18.3485 24.7265L17.6513 24.1153L16.3329 25.6192L17.03 26.2304L18.3485 24.7265ZM20.9197 28.5965C20.6334 27.8784 20.4614 27.4423 20.2353 27.03L18.4818 27.9919C18.6356 28.2721 18.7584 28.5757 19.0618 29.3371L20.9197 28.5965ZM16.9832 26.1867C17.5642 26.766 17.7954 26.9988 17.9928 27.2507L19.5669 26.0169C19.2769 25.6468 18.9434 25.3167 18.3953 24.7703L16.9832 26.1867ZM20.2353 27.03C20.0405 26.6748 19.8169 26.3359 19.5669 26.0169L17.9928 27.2507C18.1757 27.484 18.3393 27.732 18.4818 27.9919L20.2353 27.03ZM20.7856 28.5581C20.794 28.5497 20.808 28.5411 20.8234 28.5368C20.8365 28.5331 20.8464 28.5335 20.8533 28.5349C20.8601 28.5363 20.8716 28.5401 20.8853 28.5509C20.9009 28.5635 20.9134 28.5808 20.9197 28.5965L19.0618 29.3371C19.5738 30.6212 21.2377 30.9315 22.1976 29.9745L20.7856 28.5581ZM17.6992 24.1601L17.3242 23.7852L15.9101 25.1993L16.285 25.5743L17.6992 24.1601ZM7.04941 16.2827L7.28439 16.5176L8.69861 15.1035L8.46362 14.8684L7.04941 16.2827Z" fill="white"/>
<path opacity="0.5" d="M14.8002 19.0933C15.1913 18.7035 15.1922 18.0703 14.8024 17.6792C14.4124 17.288 13.7792 17.2871 13.3881 17.6771L14.8002 19.0933ZM12.0535 21.8319L14.8002 19.0933L13.3881 17.6771L10.6414 20.4155L12.0535 21.8319ZM22.5438 12.2001C21.9228 12.8193 20.9146 12.8193 20.2936 12.2001L18.8816 13.6164C20.283 15.0139 22.5542 15.0139 23.9558 13.6164L22.5438 12.2001ZM20.2936 12.2001C19.6742 11.5826 19.6742 10.5827 20.2936 9.96517L18.8816 8.54882C17.4782 9.94786 17.4782 12.2174 18.8816 13.6164L20.2936 12.2001ZM20.2936 9.96517C20.9146 9.346 21.9228 9.346 22.5438 9.96517L23.9558 8.54882C22.5542 7.15145 20.283 7.15145 18.8816 8.54882L20.2936 9.96517ZM22.5438 9.96517C23.1632 10.5827 23.1632 11.5826 22.5438 12.2001L23.9558 13.6164C25.3592 12.2174 25.3592 9.94786 23.9558 8.54882L22.5438 9.96517Z" fill="white"/>
</svg>
