<svg width="32" height="33" viewBox="0 0 32 33" fill="none" xmlns="http://www.w3.org/2000/svg">
<path d="M5.12104 10.763C3.61965 9.26165 3.61965 6.82743 5.12104 5.32605C6.62241 3.82467 9.05664 3.82467 10.558 5.32605L26.869 21.6369C28.3703 23.1384 28.3703 25.5725 26.869 27.074C25.3675 28.5753 22.9334 28.5753 21.4319 27.074L5.12104 10.763Z" stroke="white" stroke-width="2"/>
<path opacity="0.5" d="M7.995 13.5333L13.3283 8.20001" stroke="white" stroke-width="2" stroke-linecap="round"/>
<path d="M21.4616 3.27629C21.6763 2.73017 22.4463 2.73017 22.6608 3.27629L23.2347 4.73666C23.3003 4.9034 23.4318 5.03538 23.5979 5.10114L25.0528 5.6771C25.597 5.89249 25.597 6.66537 25.0528 6.88076L23.5979 7.45673C23.4318 7.52249 23.3003 7.65446 23.2347 7.8212L22.661 9.28157C22.4463 9.82769 21.6763 9.82769 21.4616 9.28158L20.8879 7.8212C20.8223 7.65446 20.6908 7.52249 20.5247 7.45673L19.0698 6.88076C18.5256 6.66537 18.5256 5.89249 19.0698 5.6771L20.5247 5.10114C20.6908 5.03538 20.8223 4.9034 20.8879 4.73666L21.4616 3.27629Z" stroke="white" stroke-width="1.33333"/>
<path opacity="0.5" d="M26.6179 12.3726C26.8325 11.8265 27.6026 11.8265 27.8171 12.3726L28.0263 12.9051C28.0919 13.0718 28.2234 13.2038 28.3895 13.2695L28.9199 13.4795C29.4641 13.6949 29.4641 14.4679 28.9199 14.6832L28.3895 14.8932C28.2234 14.9589 28.0919 15.0909 28.0263 15.2576L27.8171 15.7901C27.6026 16.3363 26.8325 16.3363 26.6179 15.7901L26.4087 15.2576C26.3431 15.0909 26.2117 14.9589 26.0455 14.8932L25.515 14.6832C24.971 14.4679 24.971 13.6949 25.515 13.4795L26.0455 13.2695C26.2117 13.2038 26.3431 13.0718 26.4087 12.9051L26.6179 12.3726Z" stroke="white" stroke-width="1.33333"/>
<path opacity="0.5" d="M6.83924 20.6096C7.05383 20.0635 7.82387 20.0635 8.03846 20.6096L8.24768 21.142C8.3132 21.3088 8.4447 21.4408 8.61082 21.5065L9.14131 21.7165C9.68541 21.9319 9.68541 22.7048 9.14131 22.9201L8.61082 23.1301C8.4447 23.1959 8.3132 23.3279 8.24768 23.4947L8.03846 24.0271C7.82387 24.5732 7.05383 24.5732 6.83924 24.0271L6.63002 23.4947C6.5645 23.3279 6.433 23.1959 6.26688 23.1301L5.73639 22.9201C5.19228 22.7048 5.19228 21.9319 5.73639 21.7165L6.26688 21.5065C6.433 21.4408 6.5645 21.3088 6.63002 21.142L6.83924 20.6096Z" stroke="white" stroke-width="1.33333"/>
</svg>
