<svg width="40" height="42" viewBox="0 0 40 42" fill="none" xmlns="http://www.w3.org/2000/svg">
<mask id="path-1-inside-1_74_123" fill="white">
<path fill-rule="evenodd" clip-rule="evenodd" d="M27.8846 2H37.5V11.6154H32.6923H30.2885L27.8846 9.21154V6.80769V2ZM12.1154 32.3846H37.5V42H16.923H14.5192L12.1154 39.5962V37.1923V32.3846ZM2.5 22.7692V27.5769V29.9807L4.90385 32.3846H7.30769H12.1154V22.7692H2.5ZM2.5 11.6153H12.1154V21.2307H7.30769H4.90385L2.5 18.8269V16.423V11.6153ZM26.3463 2H9.8078V6.80769V9.21154L12.2116 11.6154H14.6155H26.3463V2Z"/>
</mask>
<path fill-rule="evenodd" clip-rule="evenodd" d="M27.8846 2H37.5V11.6154H32.6923H30.2885L27.8846 9.21154V6.80769V2ZM12.1154 32.3846H37.5V42H16.923H14.5192L12.1154 39.5962V37.1923V32.3846ZM2.5 22.7692V27.5769V29.9807L4.90385 32.3846H7.30769H12.1154V22.7692H2.5ZM2.5 11.6153H12.1154V21.2307H7.30769H4.90385L2.5 18.8269V16.423V11.6153ZM26.3463 2H9.8078V6.80769V9.21154L12.2116 11.6154H14.6155H26.3463V2Z" fill="url(#paint0_linear_74_123)"/>
<path d="M37.5 2H38V1.5H37.5V2ZM27.8846 2V1.5H27.3846V2H27.8846ZM37.5 11.6154V12.1154H38V11.6154H37.5ZM30.2885 11.6154L29.9349 11.9689L30.0814 12.1154H30.2885V11.6154ZM27.8846 9.21154H27.3846V9.41865L27.5311 9.56509L27.8846 9.21154ZM37.5 32.3846H38V31.8846H37.5V32.3846ZM12.1154 32.3846V31.8846H11.6154V32.3846H12.1154ZM37.5 42V42.5H38V42H37.5ZM14.5192 42L14.1656 42.3536L14.3121 42.5H14.5192V42ZM12.1154 39.5962H11.6154V39.8033L11.7618 39.9497L12.1154 39.5962ZM2.5 22.7692V22.2692H2V22.7692H2.5ZM2.5 29.9807H2V30.1878L2.14645 30.3343L2.5 29.9807ZM4.90385 32.3846L4.55029 32.7381L4.69674 32.8846H4.90385V32.3846ZM12.1154 32.3846V32.8846H12.6154V32.3846H12.1154ZM12.1154 22.7692H12.6154V22.2692H12.1154V22.7692ZM12.1154 11.6153H12.6154V11.1153H12.1154V11.6153ZM2.5 11.6153V11.1153H2V11.6153H2.5ZM12.1154 21.2307V21.7307H12.6154V21.2307H12.1154ZM4.90385 21.2307L4.55029 21.5843L4.69674 21.7307H4.90385V21.2307ZM2.5 18.8269H2V19.034L2.14645 19.1804L2.5 18.8269ZM9.8078 2V1.5H9.3078V2H9.8078ZM26.3463 2H26.8463V1.5H26.3463V2ZM9.8078 9.21154H9.3078V9.41865L9.45425 9.56509L9.8078 9.21154ZM12.2116 11.6154L11.8581 11.9689L12.0045 12.1154H12.2116V11.6154ZM26.3463 11.6154V12.1154H26.8463V11.6154H26.3463ZM37.5 1.5H27.8846V2.5H37.5V1.5ZM38 11.6154V2H37V11.6154H38ZM32.6923 12.1154H37.5V11.1154H32.6923V12.1154ZM30.2885 12.1154H32.6923V11.1154H30.2885V12.1154ZM27.5311 9.56509L29.9349 11.9689L30.642 11.2618L28.2382 8.85799L27.5311 9.56509ZM27.3846 6.80769V9.21154H28.3846V6.80769H27.3846ZM27.3846 2V6.80769H28.3846V2H27.3846ZM37.5 31.8846H12.1154V32.8846H37.5V31.8846ZM38 42V32.3846H37V42H38ZM16.923 42.5H37.5V41.5H16.923V42.5ZM14.5192 42.5H16.923V41.5H14.5192V42.5ZM11.7618 39.9497L14.1656 42.3536L14.8728 41.6465L12.4689 39.2426L11.7618 39.9497ZM11.6154 37.1923V39.5962H12.6154V37.1923H11.6154ZM11.6154 32.3846V37.1923H12.6154V32.3846H11.6154ZM3 27.5769V22.7692H2V27.5769H3ZM3 29.9807V27.5769H2V29.9807H3ZM5.2574 32.031L2.85355 29.6272L2.14645 30.3343L4.55029 32.7381L5.2574 32.031ZM7.30769 31.8846H4.90385V32.8846H7.30769V31.8846ZM12.1154 31.8846H7.30769V32.8846H12.1154V31.8846ZM11.6154 22.7692V32.3846H12.6154V22.7692H11.6154ZM2.5 23.2692H12.1154V22.2692H2.5V23.2692ZM12.1154 11.1153H2.5V12.1153H12.1154V11.1153ZM12.6154 21.2307V11.6153H11.6154V21.2307H12.6154ZM7.30769 21.7307H12.1154V20.7307H7.30769V21.7307ZM4.90385 21.7307H7.30769V20.7307H4.90385V21.7307ZM2.14645 19.1804L4.55029 21.5843L5.2574 20.8772L2.85355 18.4733L2.14645 19.1804ZM2 16.423V18.8269H3V16.423H2ZM2 11.6153V16.423H3V11.6153H2ZM9.8078 2.5H26.3463V1.5H9.8078V2.5ZM10.3078 6.80769V2H9.3078V6.80769H10.3078ZM10.3078 9.21154V6.80769H9.3078V9.21154H10.3078ZM12.5652 11.2618L10.1614 8.85799L9.45425 9.56509L11.8581 11.9689L12.5652 11.2618ZM14.6155 11.1154H12.2116V12.1154H14.6155V11.1154ZM26.3463 11.1154H14.6155V12.1154H26.3463V11.1154ZM25.8463 2V11.6154H26.8463V2H25.8463Z" fill="white" fill-opacity="0.25" mask="url(#path-1-inside-1_74_123)"/>
<g opacity="0.5" filter="url(#filter0_f_74_123)">
<path d="M37.5 11.5V2H10V3H36V11.5H37.5Z" fill="white"/>
</g>
<defs>
<filter id="filter0_f_74_123" x="8" y="0" width="31.5" height="13.5" filterUnits="userSpaceOnUse" color-interpolation-filters="sRGB">
<feFlood flood-opacity="0" result="BackgroundImageFix"/>
<feBlend mode="normal" in="SourceGraphic" in2="BackgroundImageFix" result="shape"/>
<feGaussianBlur stdDeviation="1" result="effect1_foregroundBlur_74_123"/>
</filter>
<linearGradient id="paint0_linear_74_123" x1="20" y1="2" x2="20" y2="42" gradientUnits="userSpaceOnUse">
<stop stop-color="white"/>
<stop offset="1" stop-color="#CFE7FF" stop-opacity="0.7"/>
</linearGradient>
</defs>
</svg>
