<svg width="32" height="32" viewBox="0 0 32 32" fill="none" xmlns="http://www.w3.org/2000/svg">
<rect width="32" height="32" rx="6" fill="url(#paint0_linear_138_353)"/>
<path fill-rule="evenodd" clip-rule="evenodd" d="M16.0103 3.5C9.09245 3.5 3.5 9.22914 3.5 16.3169C3.5 21.9825 7.08327 26.7783 12.0542 28.4757C12.6757 28.6033 12.9034 28.1999 12.9034 27.8606C12.9034 27.5634 12.8829 26.545 12.8829 25.4838C9.40281 26.2478 8.67812 23.9559 8.67812 23.9559C8.11885 22.4705 7.29018 22.0887 7.29018 22.0887C6.15116 21.3036 7.37315 21.3036 7.37315 21.3036C8.63663 21.3885 9.29961 22.6192 9.29961 22.6192C10.4179 24.5713 12.2199 24.0197 12.9449 23.6801C13.0483 22.8525 13.3799 22.2796 13.732 21.9614C10.9564 21.6642 8.03613 20.5609 8.03613 15.6377C8.03613 14.2372 8.53292 13.0914 9.3201 12.2002C9.1959 11.882 8.76083 10.5661 9.44455 8.80493C9.44455 8.80493 10.5009 8.46534 12.8826 10.1205C13.9023 9.83999 14.954 9.69727 16.0103 9.69607C17.0667 9.69607 18.1435 9.84477 19.1378 10.1205C21.5198 8.46534 22.5761 8.80493 22.5761 8.80493C23.2599 10.5661 22.8245 11.882 22.7003 12.2002C23.5083 13.0914 23.9846 14.2372 23.9846 15.6377C23.9846 20.5609 21.0643 21.6429 18.2679 21.9614C18.7237 22.3645 19.1171 23.1283 19.1171 24.3379C19.1171 26.0567 19.0966 27.4361 19.0966 27.8603C19.0966 28.1999 19.3245 28.6033 19.9457 28.4759C24.9167 26.778 28.4999 21.9825 28.4999 16.3169C28.5204 9.22914 22.9075 3.5 16.0103 3.5Z" fill="url(#paint1_linear_138_353)"/>
<defs>
<linearGradient id="paint0_linear_138_353" x1="16" y1="0" x2="16" y2="32" gradientUnits="userSpaceOnUse">
<stop stop-color="#414141"/>
<stop offset="1" stop-color="#212121"/>
</linearGradient>
<linearGradient id="paint1_linear_138_353" x1="16" y1="3.5" x2="16" y2="28.5" gradientUnits="userSpaceOnUse">
<stop stop-color="#D9D9D9"/>
<stop offset="1" stop-color="#737373"/>
</linearGradient>
</defs>
</svg>
