<svg width="28" height="28" viewBox="0 0 28 28" fill="none" xmlns="http://www.w3.org/2000/svg">
    <g clip-path="url(#clip0_74_242)">
    <mask id="path-1-inside-1_74_242" fill="white">
    <path d="M26.1529 11.46C26.4713 10.5177 26.5819 9.51752 26.4769 8.52838C26.372 7.53924 26.054 6.58457 25.5449 5.73002C24.7858 4.42996 23.6339 3.40413 22.2549 2.80002C20.8686 2.19114 19.3262 2.03235 17.8449 2.34602C17.1743 1.60095 16.3528 1.00713 15.4349 0.604016C14.5146 0.199569 13.5192 -0.00624174 12.5139 1.64844e-05C11.002 -0.00419222 9.52688 0.466634 8.29694 1.34602C7.07503 2.21888 6.16322 3.45857 5.69394 4.88502C4.70899 5.08367 3.77724 5.48854 2.95994 6.07302C2.14639 6.65416 1.46652 7.40256 0.965944 8.26802C0.205151 9.55877 -0.120053 11.0601 0.0384258 12.55C0.196904 14.0399 0.830651 15.4392 1.84594 16.541C1.52768 17.4832 1.41714 18.4831 1.52192 19.472C1.6267 20.4609 1.94431 21.4155 2.45294 22.27C3.21211 23.5701 4.36398 24.5959 5.74294 25.2C7.12927 25.8089 8.67164 25.9677 10.1529 25.654C10.8232 26.3991 11.6444 26.9929 12.5619 27.396C13.4819 27.8 14.4779 28.006 15.4849 28C16.9978 28.0052 18.4741 27.5347 19.7049 26.655C20.9283 25.7815 21.841 24.5402 22.3099 23.112C23.2949 22.9138 24.2266 22.5092 25.0439 21.925C25.8573 21.3435 26.5368 20.5948 27.0369 19.729C27.7967 18.4382 28.1209 16.9372 27.9617 15.4479C27.8025 13.9586 27.1683 12.5601 26.1529 11.459V11.46ZM15.5429 26.17C14.1309 26.17 13.0379 25.742 12.0829 24.955C12.1259 24.932 12.2019 24.891 12.2509 24.861L17.9009 21.641C18.0416 21.5618 18.1587 21.4466 18.2402 21.3073C18.3218 21.168 18.3648 21.0095 18.3649 20.848V12.988L20.7539 14.348C20.7662 14.3544 20.7768 14.3636 20.7848 14.3749C20.7928 14.3863 20.798 14.3993 20.7999 14.413V20.921C20.7999 23.873 18.3089 26.17 15.5429 26.17ZM4.06194 21.354C3.43916 20.2947 3.21404 19.0482 3.42694 17.838C3.46894 17.863 3.54194 17.908 3.59494 17.938L9.24494 21.158C9.38602 21.2395 9.54605 21.2823 9.70894 21.2823C9.87184 21.2823 10.0319 21.2395 10.1729 21.158L17.0709 17.228V19.948C17.0718 19.9619 17.0691 19.9758 17.0631 19.9884C17.0572 20.0009 17.0482 20.0118 17.0369 20.02L11.3259 23.275C10.1009 23.9699 8.65246 24.1573 7.29094 23.797C5.93406 23.4409 4.77402 22.5627 4.06194 21.354ZM2.57294 9.18402C3.19782 8.11665 4.17737 7.30236 5.34094 6.88302V13.515C5.33939 13.6768 5.38172 13.836 5.46342 13.9756C5.54513 14.1152 5.66315 14.2301 5.80494 14.308L12.7019 18.238L10.3139 19.598C10.3022 19.6057 10.2889 19.6104 10.2749 19.6118C10.261 19.6132 10.2469 19.6112 10.2339 19.606L4.51994 16.349C3.9182 16.007 3.38985 15.5496 2.96515 15.0031C2.54044 14.4565 2.22774 13.8316 2.04494 13.164C1.8642 12.4988 1.81771 11.8043 1.90819 11.121C1.99867 10.4377 2.22531 9.77922 2.57294 9.18402ZM22.1959 13.69L15.2979 9.76002L17.6859 8.40002C17.6977 8.39235 17.711 8.38761 17.725 8.38622C17.7389 8.38483 17.753 8.38682 17.7659 8.39202L23.4789 11.647C24.351 12.1435 25.0634 12.8782 25.5329 13.765C25.9997 14.6477 26.2019 15.6462 26.1153 16.6409C26.0287 17.6356 25.6571 18.5842 25.0449 19.373C24.4292 20.1681 23.6004 20.7722 22.6549 21.115V14.482C22.6567 14.3209 22.615 14.1624 22.5342 14.023C22.4534 13.8836 22.3366 13.7686 22.1959 13.69ZM24.5729 10.157C24.5174 10.1233 24.4613 10.0903 24.4049 10.058L18.7549 6.83802C18.6138 6.75676 18.4538 6.714 18.2909 6.714C18.1281 6.714 17.9681 6.75676 17.8269 6.83802L10.9289 10.768V8.04602C10.9281 8.03213 10.9308 8.01825 10.9367 8.00567C10.9427 7.99309 10.9517 7.98221 10.9629 7.97402L16.6749 4.72302C17.5517 4.22459 18.5509 3.98287 19.5585 4.02549C20.5661 4.0681 21.5414 4.39334 22.3729 4.96402C23.199 5.53097 23.846 6.32197 24.2379 7.24402C24.6279 8.16402 24.7439 9.17402 24.5729 10.157ZM9.63094 15.009L7.24094 13.649C7.22844 13.6429 7.21768 13.6338 7.20964 13.6224C7.2016 13.611 7.19655 13.5978 7.19494 13.584V7.07502C7.19594 6.07802 7.48494 5.10202 8.02694 4.26102C8.57213 3.41756 9.34588 2.74647 10.2579 2.32602C11.1739 1.9037 12.1901 1.74727 13.1907 1.87458C14.1913 2.00188 15.1359 2.40779 15.9169 3.04602C15.8603 3.07591 15.8043 3.10692 15.7489 3.13902L10.0989 6.35902C9.95823 6.43826 9.84105 6.55341 9.75936 6.69272C9.67767 6.83203 9.63439 6.99052 9.63394 7.15202L9.63094 15.009ZM10.9279 12.249L13.9999 10.5L17.0719 12.25V15.75L13.9999 17.499L10.9279 15.749V12.249Z"/>
    </mask>
    <path d="M26.1529 11.46C26.4713 10.5177 26.5819 9.51752 26.4769 8.52838C26.372 7.53924 26.054 6.58457 25.5449 5.73002C24.7858 4.42996 23.6339 3.40413 22.2549 2.80002C20.8686 2.19114 19.3262 2.03235 17.8449 2.34602C17.1743 1.60095 16.3528 1.00713 15.4349 0.604016C14.5146 0.199569 13.5192 -0.00624174 12.5139 1.64844e-05C11.002 -0.00419222 9.52688 0.466634 8.29694 1.34602C7.07503 2.21888 6.16322 3.45857 5.69394 4.88502C4.70899 5.08367 3.77724 5.48854 2.95994 6.07302C2.14639 6.65416 1.46652 7.40256 0.965944 8.26802C0.205151 9.55877 -0.120053 11.0601 0.0384258 12.55C0.196904 14.0399 0.830651 15.4392 1.84594 16.541C1.52768 17.4832 1.41714 18.4831 1.52192 19.472C1.6267 20.4609 1.94431 21.4155 2.45294 22.27C3.21211 23.5701 4.36398 24.5959 5.74294 25.2C7.12927 25.8089 8.67164 25.9677 10.1529 25.654C10.8232 26.3991 11.6444 26.9929 12.5619 27.396C13.4819 27.8 14.4779 28.006 15.4849 28C16.9978 28.0052 18.4741 27.5347 19.7049 26.655C20.9283 25.7815 21.841 24.5402 22.3099 23.112C23.2949 22.9138 24.2266 22.5092 25.0439 21.925C25.8573 21.3435 26.5368 20.5948 27.0369 19.729C27.7967 18.4382 28.1209 16.9372 27.9617 15.4479C27.8025 13.9586 27.1683 12.5601 26.1529 11.459V11.46ZM15.5429 26.17C14.1309 26.17 13.0379 25.742 12.0829 24.955C12.1259 24.932 12.2019 24.891 12.2509 24.861L17.9009 21.641C18.0416 21.5618 18.1587 21.4466 18.2402 21.3073C18.3218 21.168 18.3648 21.0095 18.3649 20.848V12.988L20.7539 14.348C20.7662 14.3544 20.7768 14.3636 20.7848 14.3749C20.7928 14.3863 20.798 14.3993 20.7999 14.413V20.921C20.7999 23.873 18.3089 26.17 15.5429 26.17ZM4.06194 21.354C3.43916 20.2947 3.21404 19.0482 3.42694 17.838C3.46894 17.863 3.54194 17.908 3.59494 17.938L9.24494 21.158C9.38602 21.2395 9.54605 21.2823 9.70894 21.2823C9.87184 21.2823 10.0319 21.2395 10.1729 21.158L17.0709 17.228V19.948C17.0718 19.9619 17.0691 19.9758 17.0631 19.9884C17.0572 20.0009 17.0482 20.0118 17.0369 20.02L11.3259 23.275C10.1009 23.9699 8.65246 24.1573 7.29094 23.797C5.93406 23.4409 4.77402 22.5627 4.06194 21.354ZM2.57294 9.18402C3.19782 8.11665 4.17737 7.30236 5.34094 6.88302V13.515C5.33939 13.6768 5.38172 13.836 5.46342 13.9756C5.54513 14.1152 5.66315 14.2301 5.80494 14.308L12.7019 18.238L10.3139 19.598C10.3022 19.6057 10.2889 19.6104 10.2749 19.6118C10.261 19.6132 10.2469 19.6112 10.2339 19.606L4.51994 16.349C3.9182 16.007 3.38985 15.5496 2.96515 15.0031C2.54044 14.4565 2.22774 13.8316 2.04494 13.164C1.8642 12.4988 1.81771 11.8043 1.90819 11.121C1.99867 10.4377 2.22531 9.77922 2.57294 9.18402ZM22.1959 13.69L15.2979 9.76002L17.6859 8.40002C17.6977 8.39235 17.711 8.38761 17.725 8.38622C17.7389 8.38483 17.753 8.38682 17.7659 8.39202L23.4789 11.647C24.351 12.1435 25.0634 12.8782 25.5329 13.765C25.9997 14.6477 26.2019 15.6462 26.1153 16.6409C26.0287 17.6356 25.6571 18.5842 25.0449 19.373C24.4292 20.1681 23.6004 20.7722 22.6549 21.115V14.482C22.6567 14.3209 22.615 14.1624 22.5342 14.023C22.4534 13.8836 22.3366 13.7686 22.1959 13.69ZM24.5729 10.157C24.5174 10.1233 24.4613 10.0903 24.4049 10.058L18.7549 6.83802C18.6138 6.75676 18.4538 6.714 18.2909 6.714C18.1281 6.714 17.9681 6.75676 17.8269 6.83802L10.9289 10.768V8.04602C10.9281 8.03213 10.9308 8.01825 10.9367 8.00567C10.9427 7.99309 10.9517 7.98221 10.9629 7.97402L16.6749 4.72302C17.5517 4.22459 18.5509 3.98287 19.5585 4.02549C20.5661 4.0681 21.5414 4.39334 22.3729 4.96402C23.199 5.53097 23.846 6.32197 24.2379 7.24402C24.6279 8.16402 24.7439 9.17402 24.5729 10.157ZM9.63094 15.009L7.24094 13.649C7.22844 13.6429 7.21768 13.6338 7.20964 13.6224C7.2016 13.611 7.19655 13.5978 7.19494 13.584V7.07502C7.19594 6.07802 7.48494 5.10202 8.02694 4.26102C8.57213 3.41756 9.34588 2.74647 10.2579 2.32602C11.1739 1.9037 12.1901 1.74727 13.1907 1.87458C14.1913 2.00188 15.1359 2.40779 15.9169 3.04602C15.8603 3.07591 15.8043 3.10692 15.7489 3.13902L10.0989 6.35902C9.95823 6.43826 9.84105 6.55341 9.75936 6.69272C9.67767 6.83203 9.63439 6.99052 9.63394 7.15202L9.63094 15.009ZM10.9279 12.249L13.9999 10.5L17.0719 12.25V15.75L13.9999 17.499L10.9279 15.749V12.249Z" fill="url(#paint0_linear_74_242)" stroke="white" stroke-opacity="0.25" mask="url(#path-1-inside-1_74_242)"/>
    </g>
    <defs>
    <linearGradient id="paint0_linear_74_242" x1="14.0002" y1="-0.00012207" x2="14.0002" y2="28.0001" gradientUnits="userSpaceOnUse">
    <stop stop-color="white"/>
    <stop offset="1" stop-color="#CFE7FF" stop-opacity="0.7"/>
    </linearGradient>
    <clipPath id="clip0_74_242">
    <rect width="28" height="28" fill="white"/>
    </clipPath>
    </defs>
    </svg>
    