<svg width="24" height="24" viewBox="0 0 24 24" fill="none" xmlns="http://www.w3.org/2000/svg">
    <mask id="path-1-inside-1_74_236" fill="white">
        <path
            d="M19.3 7.55C19.2166 7.55 19.1458 7.53333 19.0875 7.5C19.0291 7.46667 18.9833 7.40833 18.95 7.325L18.225 5.625L16.4 4.825C16.3166 4.79167 16.2583 4.74583 16.225 4.6875C16.1916 4.62917 16.175 4.55833 16.175 4.475C16.175 4.39167 16.1916 4.32083 16.225 4.2625C16.2583 4.20417 16.3166 4.15833 16.4 4.125L18.225 3.35L18.95 1.725C18.9833 1.64167 19.0291 1.58333 19.0875 1.55C19.1458 1.51667 19.2166 1.5 19.3 1.5C19.3833 1.5 19.4541 1.51667 19.5125 1.55C19.5708 1.58333 19.6166 1.64167 19.65 1.725L20.375 3.35L22.2 4.125C22.2833 4.15833 22.3416 4.20417 22.375 4.2625C22.4083 4.32083 22.425 4.39167 22.425 4.475C22.425 4.55833 22.4083 4.62917 22.375 4.6875C22.3416 4.74583 22.2833 4.79167 22.2 4.825L20.375 5.625L19.65 7.325C19.6166 7.40833 19.5708 7.46667 19.5125 7.5C19.4541 7.53333 19.3833 7.55 19.3 7.55ZM19.3 22.45C19.2333 22.45 19.1666 22.4333 19.1 22.4C19.0333 22.3667 18.9833 22.3083 18.95 22.225L18.225 20.6L16.425 19.825C16.3416 19.7917 16.2833 19.7458 16.25 19.6875C16.2166 19.6292 16.2 19.5583 16.2 19.475C16.2 19.3917 16.2166 19.3208 16.25 19.2625C16.2833 19.2042 16.3416 19.1583 16.425 19.125L18.225 18.35L18.95 16.625C18.9833 16.5417 19.0291 16.4833 19.0875 16.45C19.1458 16.4167 19.2166 16.4 19.3 16.4C19.3833 16.4 19.4541 16.4167 19.5125 16.45C19.5708 16.4833 19.6166 16.5417 19.65 16.625L20.375 18.35L22.175 19.125C22.2583 19.1583 22.3166 19.2042 22.35 19.2625C22.3833 19.3208 22.4 19.3917 22.4 19.475C22.4 19.5583 22.3833 19.6292 22.35 19.6875C22.3166 19.7458 22.2583 19.7917 22.175 19.825L20.375 20.6L19.65 22.225C19.6166 22.3083 19.5666 22.3667 19.5 22.4C19.4333 22.4333 19.3666 22.45 19.3 22.45ZM8.32498 18.125C8.19164 18.125 8.06248 18.0875 7.93748 18.0125C7.81248 17.9375 7.71664 17.8333 7.64998 17.7L6.02498 14.225L2.52498 12.65C2.39164 12.5833 2.28748 12.4875 2.21248 12.3625C2.13748 12.2375 2.09998 12.1083 2.09998 11.975C2.09998 11.8417 2.13748 11.7125 2.21248 11.5875C2.28748 11.4625 2.39164 11.3667 2.52498 11.3L6.02498 9.725L7.64998 6.275C7.71664 6.125 7.81248 6.0125 7.93748 5.9375C8.06248 5.8625 8.19164 5.825 8.32498 5.825C8.45831 5.825 8.58748 5.8625 8.71248 5.9375C8.83748 6.0125 8.93331 6.11667 8.99998 6.25L10.65 9.725L14.125 11.3C14.275 11.3667 14.3875 11.4625 14.4625 11.5875C14.5375 11.7125 14.575 11.8417 14.575 11.975C14.575 12.1083 14.5375 12.2375 14.4625 12.3625C14.3875 12.4875 14.275 12.5833 14.125 12.65L10.65 14.225L8.99998 17.7C8.93331 17.85 8.83748 17.9583 8.71248 18.025C8.58748 18.0917 8.45831 18.125 8.32498 18.125Z" />
    </mask>
    <path
        d="M19.3 7.55C19.2166 7.55 19.1458 7.53333 19.0875 7.5C19.0291 7.46667 18.9833 7.40833 18.95 7.325L18.225 5.625L16.4 4.825C16.3166 4.79167 16.2583 4.74583 16.225 4.6875C16.1916 4.62917 16.175 4.55833 16.175 4.475C16.175 4.39167 16.1916 4.32083 16.225 4.2625C16.2583 4.20417 16.3166 4.15833 16.4 4.125L18.225 3.35L18.95 1.725C18.9833 1.64167 19.0291 1.58333 19.0875 1.55C19.1458 1.51667 19.2166 1.5 19.3 1.5C19.3833 1.5 19.4541 1.51667 19.5125 1.55C19.5708 1.58333 19.6166 1.64167 19.65 1.725L20.375 3.35L22.2 4.125C22.2833 4.15833 22.3416 4.20417 22.375 4.2625C22.4083 4.32083 22.425 4.39167 22.425 4.475C22.425 4.55833 22.4083 4.62917 22.375 4.6875C22.3416 4.74583 22.2833 4.79167 22.2 4.825L20.375 5.625L19.65 7.325C19.6166 7.40833 19.5708 7.46667 19.5125 7.5C19.4541 7.53333 19.3833 7.55 19.3 7.55ZM19.3 22.45C19.2333 22.45 19.1666 22.4333 19.1 22.4C19.0333 22.3667 18.9833 22.3083 18.95 22.225L18.225 20.6L16.425 19.825C16.3416 19.7917 16.2833 19.7458 16.25 19.6875C16.2166 19.6292 16.2 19.5583 16.2 19.475C16.2 19.3917 16.2166 19.3208 16.25 19.2625C16.2833 19.2042 16.3416 19.1583 16.425 19.125L18.225 18.35L18.95 16.625C18.9833 16.5417 19.0291 16.4833 19.0875 16.45C19.1458 16.4167 19.2166 16.4 19.3 16.4C19.3833 16.4 19.4541 16.4167 19.5125 16.45C19.5708 16.4833 19.6166 16.5417 19.65 16.625L20.375 18.35L22.175 19.125C22.2583 19.1583 22.3166 19.2042 22.35 19.2625C22.3833 19.3208 22.4 19.3917 22.4 19.475C22.4 19.5583 22.3833 19.6292 22.35 19.6875C22.3166 19.7458 22.2583 19.7917 22.175 19.825L20.375 20.6L19.65 22.225C19.6166 22.3083 19.5666 22.3667 19.5 22.4C19.4333 22.4333 19.3666 22.45 19.3 22.45ZM8.32498 18.125C8.19164 18.125 8.06248 18.0875 7.93748 18.0125C7.81248 17.9375 7.71664 17.8333 7.64998 17.7L6.02498 14.225L2.52498 12.65C2.39164 12.5833 2.28748 12.4875 2.21248 12.3625C2.13748 12.2375 2.09998 12.1083 2.09998 11.975C2.09998 11.8417 2.13748 11.7125 2.21248 11.5875C2.28748 11.4625 2.39164 11.3667 2.52498 11.3L6.02498 9.725L7.64998 6.275C7.71664 6.125 7.81248 6.0125 7.93748 5.9375C8.06248 5.8625 8.19164 5.825 8.32498 5.825C8.45831 5.825 8.58748 5.8625 8.71248 5.9375C8.83748 6.0125 8.93331 6.11667 8.99998 6.25L10.65 9.725L14.125 11.3C14.275 11.3667 14.3875 11.4625 14.4625 11.5875C14.5375 11.7125 14.575 11.8417 14.575 11.975C14.575 12.1083 14.5375 12.2375 14.4625 12.3625C14.3875 12.4875 14.275 12.5833 14.125 12.65L10.65 14.225L8.99998 17.7C8.93331 17.85 8.83748 17.9583 8.71248 18.025C8.58748 18.0917 8.45831 18.125 8.32498 18.125Z"
        fill="url(#paint0_linear_74_236)" />
    <path
        d="M18.95 7.325L20.3659 6.75863L20.3595 6.74262L20.3527 6.72676L18.95 7.325ZM18.225 5.625L19.6277 5.02676L19.3907 4.47091L18.8372 4.2283L18.225 5.625ZM16.4 4.825L17.0122 3.4283L16.9894 3.41831L16.9663 3.40907L16.4 4.825ZM16.4 4.125L16.9663 5.54093L16.9813 5.53496L16.9961 5.52868L16.4 4.125ZM18.225 3.35L18.8211 4.75368L19.3732 4.51919L19.6177 3.97135L18.225 3.35ZM18.95 1.725L20.3427 2.34635L20.3548 2.31909L20.3659 2.29137L18.95 1.725ZM19.65 1.725L18.234 2.29137L18.2451 2.31909L18.2573 2.34635L19.65 1.725ZM20.375 3.35L18.9823 3.97135L19.2267 4.51919L19.7789 4.75368L20.375 3.35ZM22.2 4.125L21.6039 5.52868L21.6187 5.53496L21.6336 5.54093L22.2 4.125ZM22.2 4.825L21.6336 3.40907L21.6105 3.41831L21.5877 3.4283L22.2 4.825ZM20.375 5.625L19.7627 4.2283L19.2093 4.47091L18.9722 5.02676L20.375 5.625ZM19.65 7.325L18.2472 6.72676L18.2405 6.74262L18.234 6.75863L19.65 7.325ZM18.95 22.225L20.3659 21.6586L20.3548 21.6309L20.3427 21.6037L18.95 22.225ZM18.225 20.6L19.6177 19.9787L19.375 19.4348L18.8281 19.1993L18.225 20.6ZM16.425 19.825L17.028 18.4243L17.0098 18.4165L16.9913 18.4091L16.425 19.825ZM16.425 19.125L16.9913 20.5409L17.0098 20.5335L17.028 20.5257L16.425 19.125ZM18.225 18.35L18.8281 19.7507L19.3927 19.5076L19.6309 18.9409L18.225 18.35ZM18.95 16.625L20.3559 17.2159L20.361 17.2037L20.3659 17.1914L18.95 16.625ZM19.65 16.625L18.234 17.1914L18.239 17.2037L18.2441 17.2159L19.65 16.625ZM20.375 18.35L18.9691 18.9409L19.2073 19.5076L19.7719 19.7507L20.375 18.35ZM22.175 19.125L21.5719 20.5257L21.5902 20.5335L21.6086 20.5409L22.175 19.125ZM22.175 19.825L21.6086 18.4091L21.5902 18.4165L21.5719 18.4243L22.175 19.825ZM20.375 20.6L19.7719 19.1993L19.2249 19.4348L18.9823 19.9787L20.375 20.6ZM19.65 22.225L18.2573 21.6037L18.2451 21.6309L18.234 21.6586L19.65 22.225ZM7.64998 17.7L6.26855 18.346L6.27703 18.3641L6.28597 18.382L7.64998 17.7ZM6.02498 14.225L7.4064 13.579L7.16673 13.0665L6.65078 12.8343L6.02498 14.225ZM2.52498 12.65L1.84297 14.014L1.8708 14.0279L1.89917 14.0407L2.52498 12.65ZM2.52498 11.3L1.89917 9.90932L1.8708 9.92209L1.84297 9.936L2.52498 11.3ZM6.02498 9.725L6.65078 11.1157L7.16454 10.8845L7.4046 10.3748L6.02498 9.725ZM7.64998 6.275L9.0296 6.92482L9.03674 6.90967L9.04354 6.89436L7.64998 6.275ZM8.99998 6.25L10.3776 5.59589L10.3709 5.58188L10.364 5.568L8.99998 6.25ZM10.65 9.725L9.27238 10.3791L9.51187 10.8835L10.0204 11.114L10.65 9.725ZM14.125 11.3L13.4954 12.689L13.5056 12.6936L14.125 11.3ZM14.125 12.65L13.5056 11.2564L13.4954 11.261L14.125 12.65ZM10.65 14.225L10.0204 12.836L9.51187 13.0665L9.27238 13.5709L10.65 14.225ZM8.99998 17.7L7.62238 17.0459L7.61418 17.0632L7.60641 17.0806L8.99998 17.7ZM19.3 6.025C19.4189 6.025 19.6228 6.04946 19.8441 6.17593L18.3309 8.82407C18.6689 9.01721 19.0144 9.075 19.3 9.075V6.025ZM19.8441 6.17593C20.1717 6.36314 20.3143 6.62954 20.3659 6.75863L17.534 7.89137C17.6524 8.18713 17.8866 8.5702 18.3309 8.82407L19.8441 6.17593ZM20.3527 6.72676L19.6277 5.02676L16.8222 6.22324L17.5472 7.92324L20.3527 6.72676ZM18.8372 4.2283L17.0122 3.4283L15.7877 6.2217L17.6127 7.0217L18.8372 4.2283ZM16.9663 3.40907C17.0954 3.46071 17.3618 3.60327 17.549 3.93089L14.9009 5.44411C15.1548 5.88839 15.5378 6.12262 15.8336 6.24093L16.9663 3.40907ZM17.549 3.93089C17.6755 4.15221 17.7 4.35607 17.7 4.475H14.65C14.65 4.7606 14.7078 5.10612 14.9009 5.44411L17.549 3.93089ZM17.7 4.475C17.7 4.59393 17.6755 4.79779 17.549 5.01911L14.9009 3.50589C14.7078 3.84388 14.65 4.1894 14.65 4.475H17.7ZM17.549 5.01911C17.3618 5.34673 17.0954 5.48929 16.9663 5.54093L15.8336 2.70907C15.5378 2.82738 15.1548 3.06161 14.9009 3.50589L17.549 5.01911ZM16.9961 5.52868L18.8211 4.75368L17.6289 1.94632L15.8039 2.72132L16.9961 5.52868ZM19.6177 3.97135L20.3427 2.34635L17.5573 1.10365L16.8323 2.72865L19.6177 3.97135ZM20.3659 2.29137C20.3143 2.42046 20.1717 2.68686 19.8441 2.87407L18.3309 0.225929C17.8866 0.479804 17.6524 0.862869 17.534 1.15863L20.3659 2.29137ZM19.8441 2.87407C19.6228 3.00054 19.4189 3.025 19.3 3.025V-0.025C19.0144 -0.025 18.6689 0.0327938 18.3309 0.225929L19.8441 2.87407ZM19.3 3.025C19.181 3.025 18.9772 3.00054 18.7559 2.87407L20.2691 0.225929C19.9311 0.0327938 19.5856 -0.025 19.3 -0.025V3.025ZM18.7559 2.87407C18.4283 2.68686 18.2857 2.42046 18.234 2.29137L21.0659 1.15863C20.9476 0.862869 20.7134 0.479804 20.2691 0.225929L18.7559 2.87407ZM18.2573 2.34635L18.9823 3.97135L21.7677 2.72865L21.0427 1.10365L18.2573 2.34635ZM19.7789 4.75368L21.6039 5.52868L22.7961 2.72132L20.9711 1.94632L19.7789 4.75368ZM21.6336 5.54093C21.5045 5.48929 21.2381 5.34673 21.0509 5.01911L23.699 3.50589C23.4452 3.06161 23.0621 2.82738 22.7663 2.70907L21.6336 5.54093ZM21.0509 5.01911C20.9244 4.79779 20.9 4.59393 20.9 4.475H23.95C23.95 4.1894 23.8922 3.84388 23.699 3.50589L21.0509 5.01911ZM20.9 4.475C20.9 4.35607 20.9244 4.15221 21.0509 3.93089L23.699 5.44411C23.8922 5.10612 23.95 4.7606 23.95 4.475H20.9ZM21.0509 3.93089C21.2381 3.60327 21.5045 3.46071 21.6336 3.40907L22.7663 6.24093C23.0621 6.12262 23.4452 5.88839 23.699 5.44411L21.0509 3.93089ZM21.5877 3.4283L19.7627 4.2283L20.9872 7.0217L22.8122 6.2217L21.5877 3.4283ZM18.9722 5.02676L18.2472 6.72676L21.0527 7.92324L21.7777 6.22324L18.9722 5.02676ZM18.234 6.75863C18.2857 6.62954 18.4283 6.36314 18.7559 6.17593L20.2691 8.82407C20.7134 8.5702 20.9476 8.18713 21.0659 7.89137L18.234 6.75863ZM18.7559 6.17593C18.9772 6.04946 19.181 6.025 19.3 6.025V9.075C19.5856 9.075 19.9311 9.01721 20.2691 8.82407L18.7559 6.17593ZM19.3 20.925C19.4968 20.925 19.6622 20.9761 19.782 21.036L18.418 23.764C18.6711 23.8906 18.9698 23.975 19.3 23.975V20.925ZM19.782 21.036C20.1147 21.2024 20.2903 21.4696 20.3659 21.6586L17.534 22.7914C17.6763 23.1471 17.9519 23.531 18.418 23.764L19.782 21.036ZM20.3427 21.6037L19.6177 19.9787L16.8323 21.2213L17.5573 22.8463L20.3427 21.6037ZM18.8281 19.1993L17.028 18.4243L15.8219 21.2257L17.6219 22.0007L18.8281 19.1993ZM16.9913 18.4091C17.1204 18.4607 17.3868 18.6033 17.574 18.9309L14.9259 20.4441C15.1798 20.8884 15.5628 21.1226 15.8586 21.2409L16.9913 18.4091ZM17.574 18.9309C17.7005 19.1522 17.725 19.3561 17.725 19.475H14.675C14.675 19.7606 14.7328 20.1061 14.9259 20.4441L17.574 18.9309ZM17.725 19.475C17.725 19.5939 17.7005 19.7978 17.574 20.0191L14.9259 18.5059C14.7328 18.8439 14.675 19.1894 14.675 19.475H17.725ZM17.574 20.0191C17.3868 20.3467 17.1204 20.4893 16.9913 20.5409L15.8586 17.7091C15.5628 17.8274 15.1798 18.0616 14.9259 18.5059L17.574 20.0191ZM17.028 20.5257L18.8281 19.7507L17.6219 16.9493L15.8219 17.7243L17.028 20.5257ZM19.6309 18.9409L20.3559 17.2159L17.5441 16.0341L16.8191 17.7591L19.6309 18.9409ZM20.3659 17.1914C20.3143 17.3205 20.1717 17.5869 19.8441 17.7741L18.3309 15.1259C17.8866 15.3798 17.6524 15.7629 17.534 16.0586L20.3659 17.1914ZM19.8441 17.7741C19.6228 17.9005 19.4189 17.925 19.3 17.925V14.875C19.0144 14.875 18.6689 14.9328 18.3309 15.1259L19.8441 17.7741ZM19.3 17.925C19.181 17.925 18.9772 17.9005 18.7559 17.7741L20.2691 15.1259C19.9311 14.9328 19.5856 14.875 19.3 14.875V17.925ZM18.7559 17.7741C18.4283 17.5869 18.2857 17.3205 18.234 17.1914L21.0659 16.0586C20.9476 15.7629 20.7134 15.3798 20.2691 15.1259L18.7559 17.7741ZM18.2441 17.2159L18.9691 18.9409L21.7809 17.7591L21.0559 16.0341L18.2441 17.2159ZM19.7719 19.7507L21.5719 20.5257L22.778 17.7243L20.9781 16.9493L19.7719 19.7507ZM21.6086 20.5409C21.4795 20.4893 21.2131 20.3467 21.0259 20.0191L23.674 18.5059C23.4202 18.0616 23.0371 17.8274 22.7413 17.7091L21.6086 20.5409ZM21.0259 20.0191C20.8994 19.7978 20.875 19.5939 20.875 19.475H23.925C23.925 19.1894 23.8672 18.8439 23.674 18.5059L21.0259 20.0191ZM20.875 19.475C20.875 19.3561 20.8994 19.1522 21.0259 18.9309L23.674 20.4441C23.8672 20.1061 23.925 19.7606 23.925 19.475H20.875ZM21.0259 18.9309C21.2131 18.6033 21.4795 18.4607 21.6086 18.4091L22.7413 21.2409C23.0371 21.1226 23.4202 20.8884 23.674 20.4441L21.0259 18.9309ZM21.5719 18.4243L19.7719 19.1993L20.9781 22.0007L22.778 21.2257L21.5719 18.4243ZM18.9823 19.9787L18.2573 21.6037L21.0427 22.8463L21.7677 21.2213L18.9823 19.9787ZM18.234 21.6586C18.3097 21.4696 18.4853 21.2024 18.818 21.036L20.182 23.764C20.648 23.531 20.9236 23.1471 21.0659 22.7914L18.234 21.6586ZM18.818 21.036C18.9378 20.9761 19.1032 20.925 19.3 20.925V23.975C19.6301 23.975 19.9288 23.8906 20.182 23.764L18.818 21.036ZM8.32498 16.6C8.49351 16.6 8.63291 16.6513 8.72208 16.7048L7.15287 19.3202C7.49205 19.5237 7.88978 19.65 8.32498 19.65V16.6ZM8.72208 16.7048C8.78096 16.7402 8.84031 16.7871 8.89415 16.8456C8.9478 16.9039 8.98692 16.9639 9.01398 17.018L6.28597 18.382C6.47924 18.7685 6.77329 19.0924 7.15287 19.3202L8.72208 16.7048ZM9.0314 17.054L7.4064 13.579L4.64355 14.871L6.26855 18.346L9.0314 17.054ZM6.65078 12.8343L3.15078 11.2593L1.89917 14.0407L5.39917 15.6157L6.65078 12.8343ZM3.20698 11.286C3.26108 11.3131 3.32104 11.3522 3.37936 11.4058C3.43787 11.4597 3.48482 11.519 3.52015 11.5779L0.904799 13.1471C1.13255 13.5267 1.45643 13.8207 1.84297 14.014L3.20698 11.286ZM3.52015 11.5779C3.57366 11.6671 3.62498 11.8065 3.62498 11.975H0.574976C0.574976 12.4102 0.701293 12.8079 0.904799 13.1471L3.52015 11.5779ZM3.62498 11.975C3.62498 12.1435 3.57366 12.2829 3.52015 12.3721L0.904799 10.8029C0.701293 11.1421 0.574976 11.5398 0.574976 11.975H3.62498ZM3.52015 12.3721C3.48482 12.431 3.43787 12.4903 3.37936 12.5442C3.32104 12.5978 3.26108 12.6369 3.20698 12.664L1.84297 9.936C1.45643 10.1293 1.13255 10.4233 0.904799 10.8029L3.52015 12.3721ZM3.15078 12.6907L6.65078 11.1157L5.39917 8.33432L1.89917 9.90932L3.15078 12.6907ZM7.4046 10.3748L9.0296 6.92482L6.27035 5.62518L4.64535 9.07518L7.4046 10.3748ZM9.04354 6.89436C9.02394 6.93845 8.98956 7.00035 8.93275 7.06704C8.87486 7.13499 8.80345 7.19635 8.72208 7.24518L7.15287 4.62982C6.7257 4.88613 6.43375 5.25662 6.25641 5.65564L9.04354 6.89436ZM8.72208 7.24518C8.63291 7.29868 8.49351 7.35 8.32498 7.35V4.3C7.88978 4.3 7.49205 4.42632 7.15287 4.62982L8.72208 7.24518ZM8.32498 7.35C8.15645 7.35 8.01705 7.29868 7.92787 7.24518L9.49708 4.62982C9.15791 4.42632 8.76017 4.3 8.32498 4.3V7.35ZM7.92787 7.24518C7.86899 7.20985 7.80964 7.1629 7.75581 7.10439C7.70215 7.04606 7.66303 6.98611 7.63597 6.932L10.364 5.568C10.1707 5.18146 9.87666 4.85757 9.49708 4.62982L7.92787 7.24518ZM7.62238 6.90411L9.27238 10.3791L12.0276 9.07089L10.3776 5.59589L7.62238 6.90411ZM10.0204 11.114L13.4954 12.689L14.7545 9.91101L11.2795 8.33601L10.0204 11.114ZM13.5056 12.6936C13.4615 12.674 13.3996 12.6396 13.3329 12.5828C13.265 12.5249 13.2036 12.4535 13.1548 12.3721L15.7702 10.8029C15.5138 10.3757 15.1434 10.0838 14.7443 9.90644L13.5056 12.6936ZM13.1548 12.3721C13.1013 12.2829 13.05 12.1435 13.05 11.975H16.1C16.1 11.5398 15.9737 11.1421 15.7702 10.8029L13.1548 12.3721ZM13.05 11.975C13.05 11.8065 13.1013 11.6671 13.1548 11.5779L15.7702 13.1471C15.9737 12.8079 16.1 12.4102 16.1 11.975H13.05ZM13.1548 11.5779C13.2036 11.4965 13.265 11.4251 13.3329 11.3672C13.3996 11.3104 13.4615 11.276 13.5056 11.2564L14.7443 14.0436C15.1434 13.8662 15.5138 13.5743 15.7702 13.1471L13.1548 11.5779ZM13.4954 11.261L10.0204 12.836L11.2795 15.614L14.7545 14.039L13.4954 11.261ZM9.27238 13.5709L7.62238 17.0459L10.3776 18.3541L12.0276 14.8791L9.27238 13.5709ZM7.60641 17.0806C7.62799 17.0321 7.66766 16.9604 7.73588 16.8833C7.80581 16.8043 7.89357 16.7334 7.99483 16.6794L9.43012 19.3706C9.90127 19.1193 10.2117 18.7285 10.3935 18.3194L7.60641 17.0806ZM7.99483 16.6794C8.07647 16.6359 8.19236 16.6 8.32498 16.6V19.65C8.72426 19.65 9.09848 19.5475 9.43012 19.3706L7.99483 16.6794Z"
        fill="white" fill-opacity="0.25" mask="url(#path-1-inside-1_74_236)" />
    <defs>
        <linearGradient id="paint0_linear_74_236" x1="12.2625" y1="1.5" x2="12.2625" y2="22.45"
            gradientUnits="userSpaceOnUse">
            <stop stop-color="white" />
            <stop offset="1" stop-color="#CFE7FF" stop-opacity="0.7" />
        </linearGradient>
    </defs>
</svg>