<svg width="96" height="96" viewBox="0 0 96 96" fill="none" xmlns="http://www.w3.org/2000/svg">
<g clip-path="url(#clip0_138_151)">
<path d="M96 48C96 21.4903 74.5097 0 48 0C21.4903 0 0 21.4903 0 48C0 74.5097 21.4903 96 48 96C74.5097 96 96 74.5097 96 48Z" fill="url(#paint0_linear_138_151)"/>
<path d="M81.5 48C81.5 29.4985 66.5015 14.5 48 14.5C29.4985 14.5 14.5 29.4985 14.5 48C14.5 66.5015 29.4985 81.5 48 81.5C66.5015 81.5 81.5 66.5015 81.5 48Z" fill="#1C1C21"/>
<path d="M81.5 48C81.5 29.4985 66.5015 14.5 48 14.5C29.4985 14.5 14.5 29.4985 14.5 48C14.5 66.5015 29.4985 81.5 48 81.5C66.5015 81.5 81.5 66.5015 81.5 48Z" stroke="url(#paint1_linear_138_151)"/>
<mask id="path-4-inside-1_138_151" fill="white">
<path fill-rule="evenodd" clip-rule="evenodd" d="M33.0544 33.0544C32 34.1088 32 35.8064 32 39.2C32 42.5936 32 44.2912 33.0544 45.3456C34.1088 46.4 35.8064 46.4 39.2 46.4C42.5936 46.4 44.2912 46.4 45.3456 45.3456C46.4 44.2912 46.4 42.5936 46.4 39.2C46.4 35.8064 46.4 34.1088 45.3456 33.0544C44.2912 32 42.5936 32 39.2 32C35.8064 32 34.1088 32 33.0544 33.0544ZM50.6544 50.6544C49.6 51.7088 49.6 53.4064 49.6 56.8C49.6 60.1936 49.6 61.8912 50.6544 62.9456C51.7088 64 53.4064 64 56.8 64C60.1936 64 61.8912 64 62.9456 62.9456C64 61.8912 64 60.1936 64 56.8C64 53.4064 64 51.7088 62.9456 50.6544C61.8912 49.6 60.1936 49.6 56.8 49.6C53.4064 49.6 51.7088 49.6 50.6544 50.6544ZM33.0544 50.6544C32 51.7088 32 53.4064 32 56.8C32 60.1936 32 61.8912 33.0544 62.9456C34.1088 64 35.8064 64 39.2 64C42.5936 64 44.2912 64 45.3456 62.9456C46.4 61.8912 46.4 60.1936 46.4 56.8C46.4 53.4064 46.4 51.7088 45.3456 50.6544C44.2912 49.6 42.5936 49.6 39.2 49.6C35.8064 49.6 34.1088 49.6 33.0544 50.6544ZM57.6485 33.5515C57.4235 33.3264 57.1183 33.2 56.8 33.2C56.4817 33.2 56.1765 33.3264 55.9515 33.5515C55.7264 33.7765 55.6 34.0817 55.6 34.4V38H52C51.6817 38 51.3765 38.1264 51.1515 38.3515C50.9264 38.5765 50.8 38.8817 50.8 39.2C50.8 39.5183 50.9264 39.8235 51.1515 40.0485C51.3765 40.2736 51.6817 40.4 52 40.4H55.6V44C55.6 44.3183 55.7264 44.6235 55.9515 44.8485C56.1765 45.0736 56.4817 45.2 56.8 45.2C57.1183 45.2 57.4235 45.0736 57.6485 44.8485C57.8736 44.6235 58 44.3183 58 44V40.4H61.6C61.9183 40.4 62.2235 40.2736 62.4485 40.0485C62.6736 39.8235 62.8 39.5183 62.8 39.2C62.8 38.8817 62.6736 38.5765 62.4485 38.3515C62.2235 38.1264 61.9183 38 61.6 38H58V34.4C58 34.0817 57.8736 33.7765 57.6485 33.5515Z"/>
</mask>
<path fill-rule="evenodd" clip-rule="evenodd" d="M33.0544 33.0544C32 34.1088 32 35.8064 32 39.2C32 42.5936 32 44.2912 33.0544 45.3456C34.1088 46.4 35.8064 46.4 39.2 46.4C42.5936 46.4 44.2912 46.4 45.3456 45.3456C46.4 44.2912 46.4 42.5936 46.4 39.2C46.4 35.8064 46.4 34.1088 45.3456 33.0544C44.2912 32 42.5936 32 39.2 32C35.8064 32 34.1088 32 33.0544 33.0544ZM50.6544 50.6544C49.6 51.7088 49.6 53.4064 49.6 56.8C49.6 60.1936 49.6 61.8912 50.6544 62.9456C51.7088 64 53.4064 64 56.8 64C60.1936 64 61.8912 64 62.9456 62.9456C64 61.8912 64 60.1936 64 56.8C64 53.4064 64 51.7088 62.9456 50.6544C61.8912 49.6 60.1936 49.6 56.8 49.6C53.4064 49.6 51.7088 49.6 50.6544 50.6544ZM33.0544 50.6544C32 51.7088 32 53.4064 32 56.8C32 60.1936 32 61.8912 33.0544 62.9456C34.1088 64 35.8064 64 39.2 64C42.5936 64 44.2912 64 45.3456 62.9456C46.4 61.8912 46.4 60.1936 46.4 56.8C46.4 53.4064 46.4 51.7088 45.3456 50.6544C44.2912 49.6 42.5936 49.6 39.2 49.6C35.8064 49.6 34.1088 49.6 33.0544 50.6544ZM57.6485 33.5515C57.4235 33.3264 57.1183 33.2 56.8 33.2C56.4817 33.2 56.1765 33.3264 55.9515 33.5515C55.7264 33.7765 55.6 34.0817 55.6 34.4V38H52C51.6817 38 51.3765 38.1264 51.1515 38.3515C50.9264 38.5765 50.8 38.8817 50.8 39.2C50.8 39.5183 50.9264 39.8235 51.1515 40.0485C51.3765 40.2736 51.6817 40.4 52 40.4H55.6V44C55.6 44.3183 55.7264 44.6235 55.9515 44.8485C56.1765 45.0736 56.4817 45.2 56.8 45.2C57.1183 45.2 57.4235 45.0736 57.6485 44.8485C57.8736 44.6235 58 44.3183 58 44V40.4H61.6C61.9183 40.4 62.2235 40.2736 62.4485 40.0485C62.6736 39.8235 62.8 39.5183 62.8 39.2C62.8 38.8817 62.6736 38.5765 62.4485 38.3515C62.2235 38.1264 61.9183 38 61.6 38H58V34.4C58 34.0817 57.8736 33.7765 57.6485 33.5515Z" fill="url(#paint2_linear_138_151)"/>
<path d="M33.0544 33.0544L32.6301 32.6301L32.6301 32.6301L33.0544 33.0544ZM33.0544 45.3456L33.4787 44.9213H33.4787L33.0544 45.3456ZM45.3456 45.3456L44.9213 44.9213L45.3456 45.3456ZM45.3456 33.0544L44.9213 33.4787V33.4787L45.3456 33.0544ZM50.6544 50.6544L51.0787 51.0787L51.0787 51.0787L50.6544 50.6544ZM62.9456 62.9456L63.3699 63.3699L63.3699 63.3699L62.9456 62.9456ZM33.0544 50.6544L33.4787 51.0787L33.4787 51.0787L33.0544 50.6544ZM33.0544 62.9456L32.6301 63.3699L32.6301 63.3699L33.0544 62.9456ZM45.3456 62.9456L45.7699 63.3699V63.3699L45.3456 62.9456ZM45.3456 50.6544L44.9213 51.0787L44.9213 51.0787L45.3456 50.6544ZM57.6485 33.5515L58.0728 33.1272L58.0728 33.1272L57.6485 33.5515ZM55.9515 33.5515L55.5272 33.1272L55.5272 33.1272L55.9515 33.5515ZM55.6 38V38.6H56.2V38H55.6ZM51.1515 38.3515L51.5757 38.7757L51.5757 38.7757L51.1515 38.3515ZM51.1515 40.0485L51.5757 39.6243L51.5757 39.6243L51.1515 40.0485ZM55.6 40.4H56.2V39.8H55.6V40.4ZM55.9515 44.8485L55.5272 45.2728L55.5272 45.2728L55.9515 44.8485ZM57.6485 44.8485L58.0728 45.2728L58.0728 45.2728L57.6485 44.8485ZM58 40.4V39.8H57.4V40.4H58ZM62.4485 40.0485L62.8728 40.4728L62.4485 40.0485ZM58 38H57.4V38.6H58V38ZM32.6 39.2C32.6 37.4862 32.6013 36.2611 32.7265 35.3299C32.8493 34.416 33.0815 33.8758 33.4787 33.4787L32.6301 32.6301C31.9729 33.2874 31.6779 34.1232 31.5371 35.1701C31.3987 36.1997 31.4 37.5202 31.4 39.2H32.6ZM33.4787 44.9213C33.0815 44.5242 32.8493 43.984 32.7265 43.0701C32.6013 42.1389 32.6 40.9138 32.6 39.2H31.4C31.4 40.8798 31.3987 42.2003 31.5371 43.2299C31.6779 44.2768 31.9729 45.1126 32.6301 45.7699L33.4787 44.9213ZM39.2 45.8C37.4862 45.8 36.2611 45.7987 35.3299 45.6735C34.416 45.5507 33.8758 45.3185 33.4787 44.9213L32.6301 45.7699C33.2874 46.4271 34.1232 46.7221 35.1701 46.8629C36.1997 47.0013 37.5202 47 39.2 47V45.8ZM44.9213 44.9213C44.5242 45.3185 43.984 45.5507 43.0701 45.6735C42.1389 45.7987 40.9138 45.8 39.2 45.8V47C40.8798 47 42.2003 47.0013 43.2299 46.8629C44.2768 46.7221 45.1126 46.4271 45.7699 45.7699L44.9213 44.9213ZM45.8 39.2C45.8 40.9138 45.7987 42.1389 45.6735 43.0701C45.5507 43.984 45.3185 44.5242 44.9213 44.9213L45.7699 45.7699C46.4271 45.1126 46.7221 44.2768 46.8629 43.2299C47.0013 42.2003 47 40.8798 47 39.2H45.8ZM44.9213 33.4787C45.3185 33.8758 45.5507 34.416 45.6735 35.3299C45.7987 36.2611 45.8 37.4862 45.8 39.2H47C47 37.5202 47.0013 36.1997 46.8629 35.1701C46.7221 34.1232 46.4271 33.2874 45.7699 32.6301L44.9213 33.4787ZM39.2 32.6C40.9138 32.6 42.1389 32.6013 43.0701 32.7265C43.984 32.8493 44.5242 33.0815 44.9213 33.4787L45.7699 32.6301C45.1126 31.9729 44.2768 31.6779 43.2299 31.5371C42.2003 31.3987 40.8798 31.4 39.2 31.4V32.6ZM33.4787 33.4787C33.8758 33.0815 34.416 32.8493 35.3299 32.7265C36.2611 32.6013 37.4862 32.6 39.2 32.6V31.4C37.5202 31.4 36.1997 31.3987 35.1701 31.5371C34.1232 31.6779 33.2874 31.9729 32.6301 32.6301L33.4787 33.4787ZM50.2 56.8C50.2 55.0862 50.2013 53.8611 50.3265 52.9299C50.4493 52.016 50.6815 51.4758 51.0787 51.0787L50.2301 50.2301C49.5729 50.8874 49.2779 51.7232 49.1371 52.7701C48.9987 53.7997 49 55.1202 49 56.8H50.2ZM51.0787 62.5213C50.6815 62.1242 50.4493 61.584 50.3265 60.6701C50.2013 59.7389 50.2 58.5138 50.2 56.8H49C49 58.4798 48.9987 59.8003 49.1371 60.8299C49.2779 61.8768 49.5729 62.7126 50.2301 63.3699L51.0787 62.5213ZM56.8 63.4C55.0862 63.4 53.8611 63.3987 52.9299 63.2736C52.016 63.1507 51.4758 62.9185 51.0787 62.5213L50.2301 63.3699C50.8874 64.0271 51.7232 64.3221 52.7701 64.4629C53.7997 64.6013 55.1202 64.6 56.8 64.6V63.4ZM62.5213 62.5213C62.1242 62.9185 61.584 63.1507 60.6701 63.2736C59.7389 63.3987 58.5138 63.4 56.8 63.4V64.6C58.4798 64.6 59.8003 64.6013 60.8299 64.4629C61.8768 64.3221 62.7126 64.0271 63.3699 63.3699L62.5213 62.5213ZM63.4 56.8C63.4 58.5138 63.3987 59.7389 63.2736 60.6701C63.1507 61.584 62.9185 62.1242 62.5213 62.5213L63.3699 63.3699C64.0271 62.7126 64.3221 61.8768 64.4629 60.8299C64.6013 59.8003 64.6 58.4798 64.6 56.8H63.4ZM62.5213 51.0787C62.9185 51.4758 63.1507 52.016 63.2736 52.9299C63.3987 53.8611 63.4 55.0862 63.4 56.8H64.6C64.6 55.1202 64.6013 53.7997 64.4629 52.7701C64.3221 51.7232 64.0271 50.8874 63.3699 50.2301L62.5213 51.0787ZM56.8 50.2C58.5138 50.2 59.7389 50.2013 60.6701 50.3265C61.584 50.4493 62.1242 50.6815 62.5213 51.0787L63.3699 50.2301C62.7126 49.5729 61.8768 49.2779 60.8299 49.1371C59.8003 48.9987 58.4798 49 56.8 49V50.2ZM51.0787 51.0787C51.4758 50.6815 52.016 50.4493 52.9299 50.3265C53.8611 50.2013 55.0862 50.2 56.8 50.2V49C55.1202 49 53.7997 48.9987 52.7701 49.1371C51.7232 49.2779 50.8874 49.5729 50.2301 50.2301L51.0787 51.0787ZM32.6 56.8C32.6 55.0862 32.6013 53.8611 32.7265 52.9299C32.8493 52.016 33.0815 51.4758 33.4787 51.0787L32.6301 50.2301C31.9729 50.8874 31.6779 51.7232 31.5371 52.7701C31.3987 53.7997 31.4 55.1202 31.4 56.8H32.6ZM33.4787 62.5213C33.0815 62.1242 32.8493 61.584 32.7265 60.6701C32.6013 59.7389 32.6 58.5138 32.6 56.8H31.4C31.4 58.4798 31.3987 59.8003 31.5371 60.8299C31.6779 61.8768 31.9729 62.7126 32.6301 63.3699L33.4787 62.5213ZM39.2 63.4C37.4862 63.4 36.2611 63.3987 35.3299 63.2736C34.416 63.1507 33.8758 62.9185 33.4787 62.5213L32.6301 63.3699C33.2874 64.0271 34.1232 64.3221 35.1701 64.4629C36.1997 64.6013 37.5202 64.6 39.2 64.6V63.4ZM44.9213 62.5213C44.5242 62.9185 43.984 63.1507 43.0701 63.2736C42.1389 63.3987 40.9138 63.4 39.2 63.4V64.6C40.8798 64.6 42.2003 64.6013 43.2299 64.4629C44.2768 64.3221 45.1126 64.0271 45.7699 63.3699L44.9213 62.5213ZM45.8 56.8C45.8 58.5138 45.7987 59.7389 45.6735 60.6701C45.5507 61.584 45.3185 62.1242 44.9213 62.5213L45.7699 63.3699C46.4271 62.7126 46.7221 61.8768 46.8629 60.8299C47.0013 59.8003 47 58.4798 47 56.8H45.8ZM44.9213 51.0787C45.3185 51.4758 45.5507 52.016 45.6735 52.9299C45.7987 53.8611 45.8 55.0862 45.8 56.8H47C47 55.1202 47.0013 53.7997 46.8629 52.7701C46.7221 51.7232 46.4271 50.8874 45.7699 50.2301L44.9213 51.0787ZM39.2 50.2C40.9138 50.2 42.1389 50.2013 43.0701 50.3265C43.984 50.4493 44.5242 50.6815 44.9213 51.0787L45.7699 50.2301C45.1126 49.5729 44.2768 49.2779 43.2299 49.1371C42.2003 48.9987 40.8798 49 39.2 49V50.2ZM33.4787 51.0787C33.8758 50.6815 34.416 50.4493 35.3299 50.3265C36.2611 50.2013 37.4862 50.2 39.2 50.2V49C37.5202 49 36.1997 48.9987 35.1701 49.1371C34.1232 49.2779 33.2874 49.5729 32.6301 50.2301L33.4787 51.0787ZM56.8 33.8C56.9591 33.8 57.1117 33.8632 57.2243 33.9757L58.0728 33.1272C57.7352 32.7896 57.2774 32.6 56.8 32.6V33.8ZM56.3757 33.9757C56.4883 33.8632 56.6409 33.8 56.8 33.8V32.6C56.3226 32.6 55.8648 32.7896 55.5272 33.1272L56.3757 33.9757ZM56.2 34.4C56.2 34.2409 56.2632 34.0883 56.3757 33.9757L55.5272 33.1272C55.1896 33.4648 55 33.9226 55 34.4H56.2ZM56.2 38V34.4H55V38H56.2ZM52 38.6H55.6V37.4H52V38.6ZM51.5757 38.7757C51.6883 38.6632 51.8409 38.6 52 38.6V37.4C51.5226 37.4 51.0648 37.5896 50.7272 37.9272L51.5757 38.7757ZM51.4 39.2C51.4 39.0409 51.4632 38.8883 51.5757 38.7757L50.7272 37.9272C50.3896 38.2648 50.2 38.7226 50.2 39.2H51.4ZM51.5757 39.6243C51.4632 39.5117 51.4 39.3591 51.4 39.2H50.2C50.2 39.6774 50.3896 40.1352 50.7272 40.4728L51.5757 39.6243ZM52 39.8C51.8409 39.8 51.6883 39.7368 51.5757 39.6243L50.7272 40.4728C51.0648 40.8104 51.5226 41 52 41V39.8ZM55.6 39.8H52V41H55.6V39.8ZM56.2 44V40.4H55V44H56.2ZM56.3757 44.4243C56.2632 44.3117 56.2 44.1591 56.2 44H55C55 44.4774 55.1896 44.9352 55.5272 45.2728L56.3757 44.4243ZM56.8 44.6C56.6409 44.6 56.4883 44.5368 56.3757 44.4243L55.5272 45.2728C55.8648 45.6104 56.3226 45.8 56.8 45.8V44.6ZM57.2243 44.4243C57.1117 44.5368 56.9591 44.6 56.8 44.6V45.8C57.2774 45.8 57.7352 45.6104 58.0728 45.2728L57.2243 44.4243ZM57.4 44C57.4 44.1591 57.3368 44.3117 57.2243 44.4243L58.0728 45.2728C58.4104 44.9352 58.6 44.4774 58.6 44H57.4ZM57.4 40.4V44H58.6V40.4H57.4ZM61.6 39.8H58V41H61.6V39.8ZM62.0243 39.6243C61.9117 39.7368 61.7591 39.8 61.6 39.8V41C62.0774 41 62.5352 40.8104 62.8728 40.4728L62.0243 39.6243ZM62.2 39.2C62.2 39.3591 62.1368 39.5117 62.0243 39.6243L62.8728 40.4728C63.2104 40.1352 63.4 39.6774 63.4 39.2H62.2ZM62.0243 38.7757C62.1368 38.8883 62.2 39.0409 62.2 39.2H63.4C63.4 38.7226 63.2104 38.2648 62.8728 37.9272L62.0243 38.7757ZM61.6 38.6C61.7591 38.6 61.9117 38.6632 62.0243 38.7757L62.8728 37.9272C62.5352 37.5896 62.0774 37.4 61.6 37.4V38.6ZM58 38.6H61.6V37.4H58V38.6ZM57.4 34.4V38H58.6V34.4H57.4ZM57.2243 33.9757C57.3368 34.0883 57.4 34.2409 57.4 34.4H58.6C58.6 33.9226 58.4104 33.4648 58.0728 33.1272L57.2243 33.9757Z" fill="url(#paint3_linear_138_151)" mask="url(#path-4-inside-1_138_151)"/>
</g>
<defs>
<linearGradient id="paint0_linear_138_151" x1="48" y1="0" x2="48" y2="96" gradientUnits="userSpaceOnUse">
<stop stop-color="#131316"/>
<stop offset="1" stop-color="#131316" stop-opacity="0"/>
</linearGradient>
<linearGradient id="paint1_linear_138_151" x1="48" y1="14" x2="48" y2="82" gradientUnits="userSpaceOnUse">
<stop stop-color="#474752"/>
<stop offset="1" stop-color="#474752" stop-opacity="0"/>
</linearGradient>
<linearGradient id="paint2_linear_138_151" x1="48" y1="32" x2="48" y2="64" gradientUnits="userSpaceOnUse">
<stop stop-color="#CCCCCC"/>
<stop offset="1" stop-color="#5F5F5F"/>
</linearGradient>
<linearGradient id="paint3_linear_138_151" x1="48" y1="32" x2="48" y2="64" gradientUnits="userSpaceOnUse">
<stop stop-color="#CBCBCB"/>
<stop offset="1" stop-color="#DBDBDB"/>
</linearGradient>
<clipPath id="clip0_138_151">
<rect width="96" height="96" fill="white"/>
</clipPath>
</defs>
</svg>
